<mxfile modified="2020-12-02T03:39:30.231Z" host="app.diagrams.net" agent="5.0 (Windows NT 10.0; Win64; x64) AppleWebKit/537.36 (KHTML, like Gecko) Chrome/86.0.4240.198 Safari/537.36" etag="S4s-9J9sF0P31C_B6n6E" version="13.10.0" type="github" pages="3">
  <diagram id="OA24zMU_A55mkJVv5YZa" name="第 1 页">
    <mxGraphModel dx="3076" dy="1963" grid="1" gridSize="10" guides="1" tooltips="1" connect="1" arrows="1" fold="1" page="1" pageScale="1" pageWidth="827" pageHeight="1169" math="0" shadow="0">
      <root>
        <mxCell id="0" />
        <mxCell id="1" parent="0" />
        <mxCell id="lVmbNDNTV3lExJrPgGP0-103" value="" style="rounded=0;whiteSpace=wrap;html=1;shadow=1;fillColor=#FFFFFF;" parent="1" vertex="1">
          <mxGeometry x="-750" y="70" width="1290" height="570" as="geometry" />
        </mxCell>
        <mxCell id="lVmbNDNTV3lExJrPgGP0-105" value="" style="rounded=0;whiteSpace=wrap;html=1;shadow=0;fillColor=#D4E1F5;" parent="1" vertex="1">
          <mxGeometry x="-750" y="70" width="720" height="570" as="geometry" />
        </mxCell>
        <mxCell id="lVmbNDNTV3lExJrPgGP0-104" value="" style="rounded=0;whiteSpace=wrap;html=1;shadow=0;fillColor=#E6E6E6;" parent="1" vertex="1">
          <mxGeometry x="-30" y="71" width="570" height="569" as="geometry" />
        </mxCell>
        <mxCell id="eCb_psYz3__27OQizyc5-1" value="运营" style="ellipse;whiteSpace=wrap;html=1;fillColor=#FF99CC;" parent="1" vertex="1">
          <mxGeometry x="-870" y="121" width="90" height="60" as="geometry" />
        </mxCell>
        <mxCell id="eCb_psYz3__27OQizyc5-2" value="FTP&lt;br&gt;（视频存储）" style="rounded=0;whiteSpace=wrap;html=1;fillColor=#99FFFF;" parent="1" vertex="1">
          <mxGeometry x="-710" y="121" width="120" height="60" as="geometry" />
        </mxCell>
        <mxCell id="eCb_psYz3__27OQizyc5-3" value="" style="endArrow=classic;html=1;exitX=1;exitY=0.5;exitDx=0;exitDy=0;entryX=0;entryY=0.5;entryDx=0;entryDy=0;" parent="1" source="eCb_psYz3__27OQizyc5-1" target="eCb_psYz3__27OQizyc5-2" edge="1">
          <mxGeometry width="50" height="50" relative="1" as="geometry">
            <mxPoint x="-680" y="111" as="sourcePoint" />
            <mxPoint x="-630" y="61" as="targetPoint" />
          </mxGeometry>
        </mxCell>
        <mxCell id="eCb_psYz3__27OQizyc5-5" value="上传" style="text;html=1;strokeColor=none;fillColor=none;align=center;verticalAlign=middle;whiteSpace=wrap;rounded=0;" parent="1" vertex="1">
          <mxGeometry x="-770" y="121" width="40" height="20" as="geometry" />
        </mxCell>
        <mxCell id="eCb_psYz3__27OQizyc5-6" value="转码机器" style="rounded=0;whiteSpace=wrap;html=1;fillColor=#99FFFF;" parent="1" vertex="1">
          <mxGeometry x="-710" y="281" width="120" height="60" as="geometry" />
        </mxCell>
        <mxCell id="eCb_psYz3__27OQizyc5-7" value="" style="endArrow=none;dashed=1;html=1;entryX=0.5;entryY=1;entryDx=0;entryDy=0;exitX=0.5;exitY=0;exitDx=0;exitDy=0;" parent="1" source="eCb_psYz3__27OQizyc5-6" target="eCb_psYz3__27OQizyc5-2" edge="1">
          <mxGeometry width="50" height="50" relative="1" as="geometry">
            <mxPoint x="-670" y="271" as="sourcePoint" />
            <mxPoint x="-620" y="221" as="targetPoint" />
          </mxGeometry>
        </mxCell>
        <mxCell id="eCb_psYz3__27OQizyc5-8" value="挂载" style="text;html=1;strokeColor=none;fillColor=none;align=center;verticalAlign=middle;whiteSpace=wrap;rounded=0;" parent="1" vertex="1">
          <mxGeometry x="-670" y="222" width="40" height="20" as="geometry" />
        </mxCell>
        <mxCell id="eCb_psYz3__27OQizyc5-9" value="" style="endArrow=classic;html=1;exitX=0.5;exitY=0;exitDx=0;exitDy=0;entryX=0.5;entryY=1;entryDx=0;entryDy=0;curved=1;" parent="1" source="eCb_psYz3__27OQizyc5-6" target="eCb_psYz3__27OQizyc5-2" edge="1">
          <mxGeometry width="50" height="50" relative="1" as="geometry">
            <mxPoint x="-710" y="251" as="sourcePoint" />
            <mxPoint x="-660" y="201" as="targetPoint" />
            <Array as="points">
              <mxPoint x="-740" y="241" />
            </Array>
          </mxGeometry>
        </mxCell>
        <mxCell id="eCb_psYz3__27OQizyc5-10" value="" style="endArrow=classic;html=1;exitX=0.5;exitY=1;exitDx=0;exitDy=0;entryX=0.5;entryY=0;entryDx=0;entryDy=0;curved=1;" parent="1" source="eCb_psYz3__27OQizyc5-2" target="eCb_psYz3__27OQizyc5-6" edge="1">
          <mxGeometry width="50" height="50" relative="1" as="geometry">
            <mxPoint x="-670" y="291" as="sourcePoint" />
            <mxPoint x="-670" y="191" as="targetPoint" />
            <Array as="points">
              <mxPoint x="-560" y="241" />
            </Array>
          </mxGeometry>
        </mxCell>
        <mxCell id="eCb_psYz3__27OQizyc5-11" value="rsync" style="text;html=1;strokeColor=none;fillColor=none;align=center;verticalAlign=middle;whiteSpace=wrap;rounded=0;" parent="1" vertex="1">
          <mxGeometry x="-740" y="221" width="40" height="20" as="geometry" />
        </mxCell>
        <mxCell id="eCb_psYz3__27OQizyc5-14" value="rsync" style="text;html=1;strokeColor=none;fillColor=none;align=center;verticalAlign=middle;whiteSpace=wrap;rounded=0;" parent="1" vertex="1">
          <mxGeometry x="-590" y="221" width="40" height="20" as="geometry" />
        </mxCell>
        <mxCell id="eCb_psYz3__27OQizyc5-15" value="推流机器" style="rounded=0;whiteSpace=wrap;html=1;fillColor=#99FFFF;" parent="1" vertex="1">
          <mxGeometry x="-280" y="120" width="120" height="200" as="geometry" />
        </mxCell>
        <mxCell id="eCb_psYz3__27OQizyc5-22" value="流机器" style="rounded=0;whiteSpace=wrap;html=1;fillColor=#99FFFF;" parent="1" vertex="1">
          <mxGeometry x="-154" y="366.5" width="70" height="60" as="geometry" />
        </mxCell>
        <mxCell id="eCb_psYz3__27OQizyc5-17" value="挂载" style="text;html=1;strokeColor=none;fillColor=none;align=center;verticalAlign=middle;whiteSpace=wrap;rounded=0;" parent="1" vertex="1">
          <mxGeometry x="-480" y="121" width="40" height="20" as="geometry" />
        </mxCell>
        <mxCell id="eCb_psYz3__27OQizyc5-18" value="" style="endArrow=none;dashed=1;html=1;entryX=1;entryY=0.5;entryDx=0;entryDy=0;exitX=-0.025;exitY=0.182;exitDx=0;exitDy=0;exitPerimeter=0;" parent="1" source="eCb_psYz3__27OQizyc5-15" target="eCb_psYz3__27OQizyc5-2" edge="1">
          <mxGeometry width="50" height="50" relative="1" as="geometry">
            <mxPoint x="-330" y="320" as="sourcePoint" />
            <mxPoint x="-330" y="220" as="targetPoint" />
          </mxGeometry>
        </mxCell>
        <mxCell id="eCb_psYz3__27OQizyc5-19" value="Web" style="rounded=0;whiteSpace=wrap;html=1;fillColor=#FFB366;" parent="1" vertex="1">
          <mxGeometry x="120" y="166" width="120" height="114" as="geometry" />
        </mxCell>
        <mxCell id="eCb_psYz3__27OQizyc5-20" value="Admin" style="rounded=0;whiteSpace=wrap;html=1;fillColor=#FFB366;" parent="1" vertex="1">
          <mxGeometry x="311.5" y="161" width="120" height="60" as="geometry" />
        </mxCell>
        <mxCell id="eCb_psYz3__27OQizyc5-21" value="Job" style="rounded=0;whiteSpace=wrap;html=1;fillColor=#FFB366;" parent="1" vertex="1">
          <mxGeometry x="264" y="415.5" width="220" height="189" as="geometry" />
        </mxCell>
        <mxCell id="eCb_psYz3__27OQizyc5-24" value="" style="endArrow=classic;html=1;exitX=0.5;exitY=1;exitDx=0;exitDy=0;entryX=0.5;entryY=0;entryDx=0;entryDy=0;exitPerimeter=0;" parent="1" target="eCb_psYz3__27OQizyc5-22" edge="1">
          <mxGeometry width="50" height="50" relative="1" as="geometry">
            <mxPoint x="-120" y="260" as="sourcePoint" />
            <mxPoint x="-110" y="366.5" as="targetPoint" />
          </mxGeometry>
        </mxCell>
        <mxCell id="eCb_psYz3__27OQizyc5-27" value="(3) flv2rtmp" style="text;html=1;strokeColor=none;fillColor=none;align=center;verticalAlign=middle;whiteSpace=wrap;rounded=0;" parent="1" vertex="1">
          <mxGeometry x="-192" y="336" width="72" height="20" as="geometry" />
        </mxCell>
        <mxCell id="lVmbNDNTV3lExJrPgGP0-1" value="跳板机" style="rounded=0;whiteSpace=wrap;html=1;fillColor=#FF99CC;" parent="1" vertex="1">
          <mxGeometry x="-280" y="-30" width="120" height="60" as="geometry" />
        </mxCell>
        <mxCell id="lVmbNDNTV3lExJrPgGP0-2" value="" style="endArrow=classic;html=1;exitX=0.5;exitY=1;exitDx=0;exitDy=0;entryX=0.5;entryY=0;entryDx=0;entryDy=0;" parent="1" source="lVmbNDNTV3lExJrPgGP0-1" target="eCb_psYz3__27OQizyc5-15" edge="1">
          <mxGeometry width="50" height="50" relative="1" as="geometry">
            <mxPoint x="-160" y="110" as="sourcePoint" />
            <mxPoint x="-110" y="60" as="targetPoint" />
          </mxGeometry>
        </mxCell>
        <mxCell id="lVmbNDNTV3lExJrPgGP0-3" value="远程控制推流：&lt;br&gt;(1) start&lt;br&gt;(2) stop&lt;br&gt;(3) restart" style="text;html=1;strokeColor=none;fillColor=none;align=left;verticalAlign=middle;whiteSpace=wrap;rounded=0;" parent="1" vertex="1">
          <mxGeometry x="-216" y="60" width="106" height="20" as="geometry" />
        </mxCell>
        <mxCell id="lVmbNDNTV3lExJrPgGP0-4" value="推流脚本" style="shape=note;whiteSpace=wrap;html=1;backgroundOutline=1;darkOpacity=0.05;fillColor=#FFF2CC;" parent="1" vertex="1">
          <mxGeometry x="-180" y="166" width="120" height="94" as="geometry" />
        </mxCell>
        <mxCell id="lVmbNDNTV3lExJrPgGP0-5" value="流管理脚本" style="shape=note;whiteSpace=wrap;html=1;backgroundOutline=1;darkOpacity=0.05;fillColor=#FFF2CC;" parent="1" vertex="1">
          <mxGeometry x="-180" y="111" width="120" height="39" as="geometry" />
        </mxCell>
        <mxCell id="lVmbNDNTV3lExJrPgGP0-6" value="" style="endArrow=classic;html=1;exitX=0;exitY=0;exitDx=105;exitDy=15;exitPerimeter=0;entryX=0;entryY=0.149;entryDx=0;entryDy=0;entryPerimeter=0;" parent="1" source="lVmbNDNTV3lExJrPgGP0-4" target="eCb_psYz3__27OQizyc5-19" edge="1">
          <mxGeometry width="50" height="50" relative="1" as="geometry">
            <mxPoint x="-30" y="170" as="sourcePoint" />
            <mxPoint x="20" y="120" as="targetPoint" />
          </mxGeometry>
        </mxCell>
        <mxCell id="lVmbNDNTV3lExJrPgGP0-7" value="(1) getVideoList" style="text;html=1;strokeColor=none;fillColor=none;align=center;verticalAlign=middle;whiteSpace=wrap;rounded=0;" parent="1" vertex="1">
          <mxGeometry y="156" width="100" height="20" as="geometry" />
        </mxCell>
        <mxCell id="lVmbNDNTV3lExJrPgGP0-9" value="" style="endArrow=classic;html=1;exitX=1.017;exitY=0.5;exitDx=0;exitDy=0;exitPerimeter=0;" parent="1" source="lVmbNDNTV3lExJrPgGP0-4" edge="1">
          <mxGeometry width="50" height="50" relative="1" as="geometry">
            <mxPoint x="-61" y="214" as="sourcePoint" />
            <mxPoint x="117" y="214" as="targetPoint" />
          </mxGeometry>
        </mxCell>
        <mxCell id="lVmbNDNTV3lExJrPgGP0-10" value="(2) startVideo" style="text;html=1;strokeColor=none;fillColor=none;align=center;verticalAlign=middle;whiteSpace=wrap;rounded=0;" parent="1" vertex="1">
          <mxGeometry y="193" width="90" height="20" as="geometry" />
        </mxCell>
        <mxCell id="lVmbNDNTV3lExJrPgGP0-11" value="" style="endArrow=classic;html=1;exitX=1.017;exitY=0.851;exitDx=0;exitDy=0;exitPerimeter=0;entryX=0;entryY=0.75;entryDx=0;entryDy=0;" parent="1" source="lVmbNDNTV3lExJrPgGP0-4" target="eCb_psYz3__27OQizyc5-19" edge="1">
          <mxGeometry width="50" height="50" relative="1" as="geometry">
            <mxPoint x="-47.460000000000036" y="250" as="sourcePoint" />
            <mxPoint x="90" y="260" as="targetPoint" />
          </mxGeometry>
        </mxCell>
        <mxCell id="lVmbNDNTV3lExJrPgGP0-12" value="(4) endVideo" style="text;html=1;strokeColor=none;fillColor=none;align=center;verticalAlign=middle;whiteSpace=wrap;rounded=0;" parent="1" vertex="1">
          <mxGeometry x="10" y="230" width="80" height="20" as="geometry" />
        </mxCell>
        <mxCell id="lVmbNDNTV3lExJrPgGP0-13" value="运营" style="ellipse;whiteSpace=wrap;html=1;fillColor=#FF99CC;" parent="1" vertex="1">
          <mxGeometry x="640" y="161" width="90" height="60" as="geometry" />
        </mxCell>
        <mxCell id="lVmbNDNTV3lExJrPgGP0-15" value="" style="endArrow=classic;html=1;exitX=0;exitY=0.5;exitDx=0;exitDy=0;entryX=1;entryY=0.5;entryDx=0;entryDy=0;" parent="1" source="lVmbNDNTV3lExJrPgGP0-13" target="eCb_psYz3__27OQizyc5-20" edge="1">
          <mxGeometry width="50" height="50" relative="1" as="geometry">
            <mxPoint x="491.5" y="131" as="sourcePoint" />
            <mxPoint x="541.5" y="81" as="targetPoint" />
          </mxGeometry>
        </mxCell>
        <mxCell id="lVmbNDNTV3lExJrPgGP0-16" value="(1) 流管理&lt;br&gt;(2) 视频及节目单管理&lt;br&gt;(3) 转码信息" style="text;html=1;strokeColor=none;fillColor=none;align=left;verticalAlign=middle;whiteSpace=wrap;rounded=0;" parent="1" vertex="1">
          <mxGeometry x="440" y="150" width="120" height="20" as="geometry" />
        </mxCell>
        <mxCell id="lVmbNDNTV3lExJrPgGP0-19" value="`resource_key` varchar(255)&lt;br&gt;`duration` bigint(20)&lt;br&gt;`title` varchar(255)&lt;br&gt;`state` tinyint(1)&lt;br&gt;&lt;br&gt;PRIMARY KEY (`resource_key`)" style="rounded=0;whiteSpace=wrap;html=1;align=left;" parent="1" vertex="1">
          <mxGeometry x="-530" y="890" width="200" height="100" as="geometry" />
        </mxCell>
        <mxCell id="lVmbNDNTV3lExJrPgGP0-20" value="&lt;pre style=&quot;background-color: rgb(202 , 230 , 202) ; font-family: &amp;#34;menlo&amp;#34; ; font-size: 10.5pt&quot;&gt;video_resource&lt;/pre&gt;" style="text;html=1;strokeColor=none;fillColor=none;align=center;verticalAlign=middle;whiteSpace=wrap;rounded=0;" parent="1" vertex="1">
          <mxGeometry x="-490" y="850" width="40" height="20" as="geometry" />
        </mxCell>
        <mxCell id="lVmbNDNTV3lExJrPgGP0-21" value="电影资源表：扫描文件路径存放和文件大小存放（只增加不删除）" style="text;html=1;strokeColor=none;fillColor=none;align=center;verticalAlign=middle;whiteSpace=wrap;rounded=0;" parent="1" vertex="1">
          <mxGeometry x="-530" y="870" width="380" height="20" as="geometry" />
        </mxCell>
        <mxCell id="lVmbNDNTV3lExJrPgGP0-22" value="&lt;pre style=&quot;background-color: rgb(202 , 230 , 202) ; font-family: &amp;#34;menlo&amp;#34; ; font-size: 10.5pt&quot;&gt;video_resource_del&lt;/pre&gt;" style="text;html=1;strokeColor=none;fillColor=none;align=center;verticalAlign=middle;whiteSpace=wrap;rounded=0;" parent="1" vertex="1">
          <mxGeometry x="-480" y="1030" width="40" height="20" as="geometry" />
        </mxCell>
        <mxCell id="lVmbNDNTV3lExJrPgGP0-23" value="电影资源删除标记表（要删除的服务端会标记为1，shell端改完标记为2）" style="text;html=1;strokeColor=none;fillColor=none;align=center;verticalAlign=middle;whiteSpace=wrap;rounded=0;" parent="1" vertex="1">
          <mxGeometry x="-530" y="1050" width="410" height="20" as="geometry" />
        </mxCell>
        <mxCell id="lVmbNDNTV3lExJrPgGP0-24" value="`resource_key` varchar(255)&lt;br&gt;`state` tinyint(1)&lt;br&gt;&lt;br&gt;PRIMARY KEY (`resource_key`)" style="rounded=0;whiteSpace=wrap;html=1;align=left;" parent="1" vertex="1">
          <mxGeometry x="-540" y="1080" width="200" height="70" as="geometry" />
        </mxCell>
        <mxCell id="lVmbNDNTV3lExJrPgGP0-25" value="&lt;font color=&quot;#ff3333&quot;&gt;（用于与Shell通信）&lt;/font&gt;" style="text;html=1;strokeColor=none;fillColor=#FFF2CC;align=center;verticalAlign=middle;whiteSpace=wrap;rounded=0;" parent="1" vertex="1">
          <mxGeometry x="-410" y="850" width="120" height="20" as="geometry" />
        </mxCell>
        <mxCell id="lVmbNDNTV3lExJrPgGP0-26" value="&lt;font color=&quot;#ff3333&quot;&gt;（用于与Shell通信）&lt;/font&gt;" style="text;html=1;strokeColor=none;fillColor=#FFF2CC;align=center;verticalAlign=middle;whiteSpace=wrap;rounded=0;" parent="1" vertex="1">
          <mxGeometry x="-381" y="1030" width="120" height="20" as="geometry" />
        </mxCell>
        <mxCell id="lVmbNDNTV3lExJrPgGP0-27" value="&lt;div&gt;`stream_url` varchar(255)&amp;nbsp;&lt;/div&gt;&lt;div&gt;&amp;nbsp; `schedule_id` bigint(11)&amp;nbsp;&lt;/div&gt;&lt;div&gt;&amp;nbsp; `resource_key` varchar(255)&amp;nbsp;&lt;/div&gt;&lt;div&gt;&amp;nbsp; `start_time` datetime&amp;nbsp;&lt;/div&gt;&lt;div&gt;&amp;nbsp; `resource_index` int(11)&lt;/div&gt;&lt;div&gt;&amp;nbsp;&amp;nbsp;&lt;/div&gt;&lt;div&gt;&amp;nbsp; PRIMARY KEY (`stream_url`)&lt;/div&gt;" style="rounded=0;whiteSpace=wrap;html=1;align=left;" parent="1" vertex="1">
          <mxGeometry x="10" y="900" width="200" height="100" as="geometry" />
        </mxCell>
        <mxCell id="lVmbNDNTV3lExJrPgGP0-28" value="&lt;pre style=&quot;background-color: rgb(202 , 230 , 202) ; font-family: &amp;#34;menlo&amp;#34; ; font-size: 10.5pt&quot;&gt;&lt;pre style=&quot;font-family: &amp;#34;menlo&amp;#34; ; font-size: 10.5pt&quot;&gt;stream_resource&lt;/pre&gt;&lt;/pre&gt;" style="text;html=1;strokeColor=none;fillColor=none;align=center;verticalAlign=middle;whiteSpace=wrap;rounded=0;" parent="1" vertex="1">
          <mxGeometry x="50" y="850" width="40" height="20" as="geometry" />
        </mxCell>
        <mxCell id="lVmbNDNTV3lExJrPgGP0-29" value="&amp;nbsp; 流当前正在播放的资源表：包含流名称和当前正在播放的电影资源路径表" style="text;html=1;strokeColor=none;fillColor=none;align=center;verticalAlign=middle;whiteSpace=wrap;rounded=0;" parent="1" vertex="1">
          <mxGeometry x="10" y="870" width="440" height="20" as="geometry" />
        </mxCell>
        <mxCell id="lVmbNDNTV3lExJrPgGP0-30" value="&lt;font color=&quot;#ff3333&quot;&gt;（用于与Shell通信）&lt;/font&gt;" style="text;html=1;strokeColor=none;fillColor=#FFF2CC;align=center;verticalAlign=middle;whiteSpace=wrap;rounded=0;" parent="1" vertex="1">
          <mxGeometry x="138" y="850" width="120" height="20" as="geometry" />
        </mxCell>
        <mxCell id="lVmbNDNTV3lExJrPgGP0-31" value="由 Web 在 startVideo 接口写入数据库" style="text;html=1;strokeColor=none;fillColor=#CCE5FF;align=center;verticalAlign=middle;whiteSpace=wrap;rounded=0;" parent="1" vertex="1">
          <mxGeometry x="260" y="850" width="120" height="20" as="geometry" />
        </mxCell>
        <mxCell id="lVmbNDNTV3lExJrPgGP0-32" value="&lt;div&gt;`stream_name` varchar(255)&amp;nbsp;&lt;/div&gt;&lt;div&gt;&amp;nbsp; `resource_key` varchar(255)&amp;nbsp;&lt;/div&gt;&lt;div&gt;&amp;nbsp; PRIMARY KEY (`stream_name`,`resource_key`)&lt;/div&gt;" style="rounded=0;whiteSpace=wrap;html=1;align=left;" parent="1" vertex="1">
          <mxGeometry x="30" y="1100" width="200" height="80" as="geometry" />
        </mxCell>
        <mxCell id="lVmbNDNTV3lExJrPgGP0-33" value="&lt;pre style=&quot;background-color: rgb(202 , 230 , 202) ; font-family: &amp;#34;menlo&amp;#34; ; font-size: 10.5pt&quot;&gt;&lt;pre style=&quot;font-family: &amp;#34;menlo&amp;#34; ; font-size: 10.5pt&quot;&gt;stream_resource_list&lt;/pre&gt;&lt;/pre&gt;" style="text;html=1;strokeColor=none;fillColor=none;align=center;verticalAlign=middle;whiteSpace=wrap;rounded=0;" parent="1" vertex="1">
          <mxGeometry x="45" y="1060" width="40" height="20" as="geometry" />
        </mxCell>
        <mxCell id="lVmbNDNTV3lExJrPgGP0-34" value="每个流对应的电影资源列表：包含流名称和电影资源路径（用于系统初始化数据）" style="text;html=1;strokeColor=none;fillColor=none;align=center;verticalAlign=middle;whiteSpace=wrap;rounded=0;" parent="1" vertex="1">
          <mxGeometry x="30" y="1080" width="440" height="20" as="geometry" />
        </mxCell>
        <mxCell id="lVmbNDNTV3lExJrPgGP0-37" value="long scheduleId :&amp;nbsp;&amp;nbsp;排期ID&lt;br&gt;int videoId&amp;nbsp; :&amp;nbsp;&amp;nbsp;影视的id&lt;br&gt;String title&amp;nbsp; :&amp;nbsp;&amp;nbsp;影片名称&lt;br&gt;int duration&amp;nbsp; :&amp;nbsp;&amp;nbsp;时长&lt;br&gt;Date date&amp;nbsp; :&amp;nbsp;&amp;nbsp;预计开播时间&lt;br&gt;int interval&amp;nbsp; :&amp;nbsp;播放间隔时间&lt;br&gt;int score&amp;nbsp; :&amp;nbsp;&amp;nbsp;排序" style="rounded=0;whiteSpace=wrap;html=1;align=left;" parent="1" vertex="1">
          <mxGeometry x="600" y="900" width="200" height="120" as="geometry" />
        </mxCell>
        <mxCell id="lVmbNDNTV3lExJrPgGP0-38" value="&lt;pre style=&quot;background-color: rgb(202 , 230 , 202) ; font-family: &amp;#34;menlo&amp;#34; ; font-size: 10.5pt&quot;&gt;&lt;pre style=&quot;font-family: &amp;#34;menlo&amp;#34; ; font-size: 10.5pt&quot;&gt;&lt;pre style=&quot;font-family: &amp;#34;menlo&amp;#34; ; font-size: 10.5pt&quot;&gt;&lt;span style=&quot;color: #002db5 ; font-weight: bold&quot;&gt;VideoSchedule&lt;/span&gt;&lt;/pre&gt;&lt;/pre&gt;&lt;/pre&gt;" style="text;html=1;strokeColor=none;fillColor=none;align=center;verticalAlign=middle;whiteSpace=wrap;rounded=0;" parent="1" vertex="1">
          <mxGeometry x="640" y="850" width="40" height="20" as="geometry" />
        </mxCell>
        <mxCell id="lVmbNDNTV3lExJrPgGP0-39" value="影片排期" style="text;html=1;strokeColor=none;fillColor=none;align=center;verticalAlign=middle;whiteSpace=wrap;rounded=0;" parent="1" vertex="1">
          <mxGeometry x="605" y="870" width="110" height="20" as="geometry" />
        </mxCell>
        <mxCell id="lVmbNDNTV3lExJrPgGP0-41" value="由 Admin、Web 读写Redis" style="text;html=1;strokeColor=none;fillColor=#CCE5FF;align=center;verticalAlign=middle;whiteSpace=wrap;rounded=0;" parent="1" vertex="1">
          <mxGeometry x="880" y="850" width="120" height="20" as="geometry" />
        </mxCell>
        <mxCell id="lVmbNDNTV3lExJrPgGP0-42" value="&lt;font color=&quot;#ff3333&quot;&gt;只存于 redis&lt;/font&gt;" style="text;html=1;strokeColor=none;fillColor=#FFF2CC;align=center;verticalAlign=middle;whiteSpace=wrap;rounded=0;" parent="1" vertex="1">
          <mxGeometry x="739" y="850" width="120" height="20" as="geometry" />
        </mxCell>
        <mxCell id="lVmbNDNTV3lExJrPgGP0-44" value="" style="endArrow=classic;html=1;exitX=0.5;exitY=1;exitDx=0;exitDy=0;entryX=0.339;entryY=-0.033;entryDx=0;entryDy=0;entryPerimeter=0;rounded=0;" parent="1" source="eCb_psYz3__27OQizyc5-20" target="lVmbNDNTV3lExJrPgGP0-94" edge="1">
          <mxGeometry width="50" height="50" relative="1" as="geometry">
            <mxPoint x="473.5" y="221" as="sourcePoint" />
            <mxPoint x="371.5" y="181" as="targetPoint" />
            <Array as="points">
              <mxPoint x="372" y="370" />
              <mxPoint x="4" y="370" />
            </Array>
          </mxGeometry>
        </mxCell>
        <mxCell id="lVmbNDNTV3lExJrPgGP0-45" value="" style="endArrow=classic;html=1;exitX=0.25;exitY=1;exitDx=0;exitDy=0;entryX=0.343;entryY=-0.1;entryDx=0;entryDy=0;entryPerimeter=0;rounded=0;" parent="1" source="eCb_psYz3__27OQizyc5-19" target="lVmbNDNTV3lExJrPgGP0-94" edge="1">
          <mxGeometry width="50" height="50" relative="1" as="geometry">
            <mxPoint x="280" y="190" as="sourcePoint" />
            <mxPoint x="258" y="110" as="targetPoint" />
            <Array as="points">
              <mxPoint x="150" y="370" />
              <mxPoint x="7" y="370" />
            </Array>
          </mxGeometry>
        </mxCell>
        <mxCell id="lVmbNDNTV3lExJrPgGP0-47" value="long videoId&amp;nbsp; :&amp;nbsp; 视频ID&lt;br&gt;List&amp;lt;ScheduleInfo&amp;gt; scheduleInfoList&amp;nbsp; :&amp;nbsp;&amp;nbsp;排期信息列表&lt;br&gt;int todayRemaingCount&amp;nbsp; :&amp;nbsp;&amp;nbsp;今日剩余场数" style="rounded=0;whiteSpace=wrap;html=1;align=left;" parent="1" vertex="1">
          <mxGeometry x="640" y="1130" width="290" height="120" as="geometry" />
        </mxCell>
        <mxCell id="lVmbNDNTV3lExJrPgGP0-48" value="&lt;pre style=&quot;background-color: rgb(202 , 230 , 202) ; font-family: &amp;#34;menlo&amp;#34; ; font-size: 10.5pt&quot;&gt;&lt;pre style=&quot;font-family: &amp;#34;menlo&amp;#34; ; font-size: 10.5pt&quot;&gt;&lt;pre style=&quot;font-family: &amp;#34;menlo&amp;#34; ; font-size: 10.5pt&quot;&gt;&lt;span style=&quot;color: #002db5 ; font-weight: bold&quot;&gt;VideoScheduleList&lt;/span&gt;&lt;/pre&gt;&lt;/pre&gt;&lt;/pre&gt;" style="text;html=1;strokeColor=none;fillColor=none;align=center;verticalAlign=middle;whiteSpace=wrap;rounded=0;" parent="1" vertex="1">
          <mxGeometry x="680" y="1080" width="40" height="20" as="geometry" />
        </mxCell>
        <mxCell id="lVmbNDNTV3lExJrPgGP0-49" value="影片排期列表" style="text;html=1;strokeColor=none;fillColor=none;align=center;verticalAlign=middle;whiteSpace=wrap;rounded=0;" parent="1" vertex="1">
          <mxGeometry x="645" y="1100" width="110" height="20" as="geometry" />
        </mxCell>
        <mxCell id="lVmbNDNTV3lExJrPgGP0-50" value="&lt;font color=&quot;#ff3333&quot;&gt;只存于 redis&lt;/font&gt;" style="text;html=1;strokeColor=none;fillColor=#FFF2CC;align=center;verticalAlign=middle;whiteSpace=wrap;rounded=0;" parent="1" vertex="1">
          <mxGeometry x="779" y="1080" width="120" height="20" as="geometry" />
        </mxCell>
        <mxCell id="lVmbNDNTV3lExJrPgGP0-52" value="扫描文件脚本" style="shape=note;whiteSpace=wrap;html=1;backgroundOutline=1;darkOpacity=0.05;fillColor=#FFF2CC;" parent="1" vertex="1">
          <mxGeometry x="-400" y="242" width="139" height="39" as="geometry" />
        </mxCell>
        <mxCell id="lVmbNDNTV3lExJrPgGP0-54" value="" style="endArrow=classic;html=1;exitX=0.151;exitY=1.026;exitDx=0;exitDy=0;exitPerimeter=0;entryX=0.688;entryY=-0.025;entryDx=0;entryDy=0;rounded=0;entryPerimeter=0;" parent="1" source="lVmbNDNTV3lExJrPgGP0-52" target="lVmbNDNTV3lExJrPgGP0-91" edge="1">
          <mxGeometry width="50" height="50" relative="1" as="geometry">
            <mxPoint x="-360" y="430" as="sourcePoint" />
            <mxPoint x="-310" y="380" as="targetPoint" />
            <Array as="points">
              <mxPoint x="-379" y="385" />
            </Array>
          </mxGeometry>
        </mxCell>
        <mxCell id="lVmbNDNTV3lExJrPgGP0-55" value="" style="endArrow=classic;html=1;entryX=0.5;entryY=1;entryDx=0;entryDy=0;rounded=0;entryPerimeter=0;" parent="1" target="lVmbNDNTV3lExJrPgGP0-60" edge="1">
          <mxGeometry width="50" height="50" relative="1" as="geometry">
            <mxPoint x="-579" y="715" as="sourcePoint" />
            <mxPoint x="-590" y="370" as="targetPoint" />
            <Array as="points" />
          </mxGeometry>
        </mxCell>
        <mxCell id="lVmbNDNTV3lExJrPgGP0-56" value="未转码文件&lt;br&gt;Queue（redis）" style="text;html=1;strokeColor=none;fillColor=none;align=center;verticalAlign=middle;whiteSpace=wrap;rounded=0;" parent="1" vertex="1">
          <mxGeometry x="-450" y="659.5" width="67" height="20" as="geometry" />
        </mxCell>
        <mxCell id="lVmbNDNTV3lExJrPgGP0-58" value="已转码文件入库&lt;br&gt;&lt;span style=&quot;color: rgb(102 , 102 , 255)&quot;&gt;table :&amp;nbsp; video_resource&lt;/span&gt;" style="text;html=1;strokeColor=none;fillColor=none;align=center;verticalAlign=middle;whiteSpace=wrap;rounded=0;" parent="1" vertex="1">
          <mxGeometry x="-328" y="654.5" width="128" height="20" as="geometry" />
        </mxCell>
        <mxCell id="lVmbNDNTV3lExJrPgGP0-59" value="" style="endArrow=classic;html=1;exitX=0.5;exitY=1;exitDx=0;exitDy=0;exitPerimeter=0;entryX=0.781;entryY=-0.05;entryDx=0;entryDy=0;entryPerimeter=0;" parent="1" source="lVmbNDNTV3lExJrPgGP0-52" target="lVmbNDNTV3lExJrPgGP0-91" edge="1">
          <mxGeometry width="50" height="50" relative="1" as="geometry">
            <mxPoint x="-310" y="450" as="sourcePoint" />
            <mxPoint x="-332.5" y="510" as="targetPoint" />
          </mxGeometry>
        </mxCell>
        <mxCell id="lVmbNDNTV3lExJrPgGP0-60" value="转码脚本" style="shape=note;whiteSpace=wrap;html=1;backgroundOutline=1;darkOpacity=0.05;fillColor=#FFF2CC;" parent="1" vertex="1">
          <mxGeometry x="-639" y="321.5" width="119" height="39" as="geometry" />
        </mxCell>
        <mxCell id="lVmbNDNTV3lExJrPgGP0-62" value="" style="endArrow=classic;html=1;exitX=0.25;exitY=1;exitDx=0;exitDy=0;entryX=0.102;entryY=-0.025;entryDx=0;entryDy=0;entryPerimeter=0;" parent="1" source="eCb_psYz3__27OQizyc5-6" target="lVmbNDNTV3lExJrPgGP0-91" edge="1">
          <mxGeometry width="50" height="50" relative="1" as="geometry">
            <mxPoint x="-640" y="440" as="sourcePoint" />
            <mxPoint x="-681.5" y="500" as="targetPoint" />
          </mxGeometry>
        </mxCell>
        <mxCell id="lVmbNDNTV3lExJrPgGP0-63" value="转码结果&lt;br&gt;&lt;span style=&quot;color: rgb(102 , 102 , 255)&quot;&gt;table : trans_task_history&lt;/span&gt;" style="text;html=1;strokeColor=none;fillColor=none;align=center;verticalAlign=middle;whiteSpace=wrap;rounded=0;" parent="1" vertex="1">
          <mxGeometry x="-850.5" y="659.5" width="161" height="20" as="geometry" />
        </mxCell>
        <mxCell id="lVmbNDNTV3lExJrPgGP0-66" value="（5）写入推流结果&lt;br&gt;&lt;span style=&quot;color: rgb(102 , 102 , 255)&quot;&gt;table : stream_push_history&lt;/span&gt;" style="text;html=1;strokeColor=none;fillColor=none;align=center;verticalAlign=middle;whiteSpace=wrap;rounded=0;" parent="1" vertex="1">
          <mxGeometry x="-67" y="311" width="154" height="20" as="geometry" />
        </mxCell>
        <mxCell id="lVmbNDNTV3lExJrPgGP0-67" value="" style="endArrow=classic;html=1;exitX=0;exitY=0.5;exitDx=0;exitDy=0;exitPerimeter=0;entryX=0.515;entryY=0;entryDx=0;entryDy=0;rounded=0;entryPerimeter=0;" parent="1" source="lVmbNDNTV3lExJrPgGP0-68" target="lVmbNDNTV3lExJrPgGP0-94" edge="1">
          <mxGeometry width="50" height="50" relative="1" as="geometry">
            <mxPoint x="120" y="309.5" as="sourcePoint" />
            <mxPoint x="67.75" y="435" as="targetPoint" />
            <Array as="points">
              <mxPoint x="120" y="415" />
            </Array>
          </mxGeometry>
        </mxCell>
        <mxCell id="lVmbNDNTV3lExJrPgGP0-68" value="获取播放记录弹幕数" style="shape=note;whiteSpace=wrap;html=1;backgroundOutline=1;darkOpacity=0.05;fillColor=#E5CCFF;" parent="1" vertex="1">
          <mxGeometry x="224" y="395.5" width="170" height="39" as="geometry" />
        </mxCell>
        <mxCell id="lVmbNDNTV3lExJrPgGP0-69" value="读取推流记录" style="text;html=1;strokeColor=none;fillColor=none;align=center;verticalAlign=middle;whiteSpace=wrap;rounded=0;" parent="1" vertex="1">
          <mxGeometry x="110" y="391" width="89" height="20" as="geometry" />
        </mxCell>
        <mxCell id="lVmbNDNTV3lExJrPgGP0-70" value="Live API :&amp;nbsp; monitor" style="rounded=0;whiteSpace=wrap;html=1;fillColor=#FF99CC;" parent="1" vertex="1">
          <mxGeometry x="640" y="381" width="120" height="34" as="geometry" />
        </mxCell>
        <mxCell id="lVmbNDNTV3lExJrPgGP0-72" value="视频资源加载" style="shape=note;whiteSpace=wrap;html=1;backgroundOutline=1;darkOpacity=0.05;fillColor=#E5CCFF;" parent="1" vertex="1">
          <mxGeometry x="215.5" y="575.5" width="150" height="39" as="geometry" />
        </mxCell>
        <mxCell id="lVmbNDNTV3lExJrPgGP0-74" value="读取&lt;br&gt;&lt;span style=&quot;color: rgb(102 , 102 , 255)&quot;&gt;table :&amp;nbsp; video_resource&lt;/span&gt;" style="text;html=1;strokeColor=none;fillColor=none;align=center;verticalAlign=middle;whiteSpace=wrap;rounded=0;" parent="1" vertex="1">
          <mxGeometry x="161.5" y="659.5" width="125" height="20" as="geometry" />
        </mxCell>
        <mxCell id="lVmbNDNTV3lExJrPgGP0-76" value="" style="endArrow=classic;html=1;exitX=0.886;exitY=1.017;exitDx=0;exitDy=0;exitPerimeter=0;" parent="1" source="lVmbNDNTV3lExJrPgGP0-72" edge="1">
          <mxGeometry width="50" height="50" relative="1" as="geometry">
            <mxPoint x="230" y="611" as="sourcePoint" />
            <mxPoint x="346" y="717" as="targetPoint" />
          </mxGeometry>
        </mxCell>
        <mxCell id="lVmbNDNTV3lExJrPgGP0-77" value="入库&lt;br&gt;&lt;span style=&quot;color: rgb(102 , 102 , 255)&quot;&gt;table :&amp;nbsp; video&lt;/span&gt;" style="text;html=1;strokeColor=none;fillColor=none;align=center;verticalAlign=middle;whiteSpace=wrap;rounded=0;" parent="1" vertex="1">
          <mxGeometry x="346" y="654.5" width="88" height="20" as="geometry" />
        </mxCell>
        <mxCell id="lVmbNDNTV3lExJrPgGP0-78" value="虎牙视频加载" style="shape=note;whiteSpace=wrap;html=1;backgroundOutline=1;darkOpacity=0.05;fillColor=#E5CCFF;" parent="1" vertex="1">
          <mxGeometry x="224" y="517.5" width="150" height="39" as="geometry" />
        </mxCell>
        <mxCell id="lVmbNDNTV3lExJrPgGP0-79" value="v.huya.com" style="rounded=0;whiteSpace=wrap;html=1;fillColor=#FF99CC;" parent="1" vertex="1">
          <mxGeometry x="645" y="514.5" width="120" height="34" as="geometry" />
        </mxCell>
        <mxCell id="lVmbNDNTV3lExJrPgGP0-80" value="" style="endArrow=classic;html=1;exitX=0;exitY=0;exitDx=135;exitDy=15;exitPerimeter=0;entryX=0;entryY=0.5;entryDx=0;entryDy=0;" parent="1" source="lVmbNDNTV3lExJrPgGP0-78" target="lVmbNDNTV3lExJrPgGP0-79" edge="1">
          <mxGeometry width="50" height="50" relative="1" as="geometry">
            <mxPoint x="434.5" y="650.5" as="sourcePoint" />
            <mxPoint x="484.5" y="600.5" as="targetPoint" />
          </mxGeometry>
        </mxCell>
        <mxCell id="lVmbNDNTV3lExJrPgGP0-81" value="获取虎牙视频信息" style="text;html=1;strokeColor=none;fillColor=none;align=center;verticalAlign=middle;whiteSpace=wrap;rounded=0;" parent="1" vertex="1">
          <mxGeometry x="432" y="534.5" width="109" height="20" as="geometry" />
        </mxCell>
        <mxCell id="lVmbNDNTV3lExJrPgGP0-82" value="" style="endArrow=classic;html=1;exitX=0;exitY=0;exitDx=140;exitDy=0;exitPerimeter=0;entryX=0;entryY=0.5;entryDx=0;entryDy=0;" parent="1" source="lVmbNDNTV3lExJrPgGP0-68" target="lVmbNDNTV3lExJrPgGP0-70" edge="1">
          <mxGeometry width="50" height="50" relative="1" as="geometry">
            <mxPoint x="624" y="344" as="sourcePoint" />
            <mxPoint x="674" y="294" as="targetPoint" />
          </mxGeometry>
        </mxCell>
        <mxCell id="lVmbNDNTV3lExJrPgGP0-83" value="获取弹幕数" style="text;html=1;strokeColor=none;fillColor=none;align=center;verticalAlign=middle;whiteSpace=wrap;rounded=0;" parent="1" vertex="1">
          <mxGeometry x="389.5" y="360.5" width="89" height="20" as="geometry" />
        </mxCell>
        <mxCell id="lVmbNDNTV3lExJrPgGP0-85" value="" style="endArrow=classic;html=1;exitX=0.717;exitY=1.021;exitDx=0;exitDy=0;entryX=0.25;entryY=0;entryDx=0;entryDy=0;exitPerimeter=0;rounded=0;" parent="1" source="lVmbNDNTV3lExJrPgGP0-4" target="lVmbNDNTV3lExJrPgGP0-94" edge="1">
          <mxGeometry width="50" height="50" relative="1" as="geometry">
            <mxPoint x="-120" y="420" as="sourcePoint" />
            <mxPoint x="12.981999999999971" y="431" as="targetPoint" />
            <Array as="points">
              <mxPoint x="-94" y="290" />
              <mxPoint x="-54" y="290" />
            </Array>
          </mxGeometry>
        </mxCell>
        <mxCell id="lVmbNDNTV3lExJrPgGP0-86" value="虎牙视频&lt;br&gt;下载脚本" style="shape=note;whiteSpace=wrap;html=1;backgroundOutline=1;darkOpacity=0.05;align=left;fillColor=#FFF2CC;" parent="1" vertex="1">
          <mxGeometry x="-290" y="300.5" width="90" height="39" as="geometry" />
        </mxCell>
        <mxCell id="lVmbNDNTV3lExJrPgGP0-88" value="" style="endArrow=classic;html=1;exitX=0;exitY=0.5;exitDx=0;exitDy=0;exitPerimeter=0;rounded=0;entryX=0.56;entryY=0;entryDx=0;entryDy=0;entryPerimeter=0;" parent="1" source="lVmbNDNTV3lExJrPgGP0-78" target="lVmbNDNTV3lExJrPgGP0-94" edge="1">
          <mxGeometry width="50" height="50" relative="1" as="geometry">
            <mxPoint x="-40" y="570" as="sourcePoint" />
            <mxPoint x="30" y="719" as="targetPoint" />
            <Array as="points">
              <mxPoint x="150" y="537" />
            </Array>
          </mxGeometry>
        </mxCell>
        <mxCell id="lVmbNDNTV3lExJrPgGP0-89" value="" style="endArrow=classic;html=1;entryX=0.656;entryY=1.013;entryDx=0;entryDy=0;entryPerimeter=0;rounded=0;" parent="1" target="lVmbNDNTV3lExJrPgGP0-86" edge="1">
          <mxGeometry width="50" height="50" relative="1" as="geometry">
            <mxPoint x="-162" y="719" as="sourcePoint" />
            <mxPoint x="-150" y="440" as="targetPoint" />
            <Array as="points">
              <mxPoint x="-162" y="490" />
              <mxPoint x="-230" y="490" />
            </Array>
          </mxGeometry>
        </mxCell>
        <mxCell id="lVmbNDNTV3lExJrPgGP0-90" value="待下载视频&lt;br&gt;Redis Queue" style="text;html=1;strokeColor=none;fillColor=none;align=center;verticalAlign=middle;whiteSpace=wrap;rounded=0;" parent="1" vertex="1">
          <mxGeometry x="-160" y="659.5" width="76" height="20" as="geometry" />
        </mxCell>
        <mxCell id="lVmbNDNTV3lExJrPgGP0-91" value="MySql" style="rounded=1;whiteSpace=wrap;html=1;fillColor=#D5E8D4;" parent="1" vertex="1">
          <mxGeometry x="-739" y="720" width="520" height="40" as="geometry" />
        </mxCell>
        <mxCell id="lVmbNDNTV3lExJrPgGP0-94" value="Redis" style="rounded=1;whiteSpace=wrap;html=1;fillColor=#97D077;" parent="1" vertex="1">
          <mxGeometry x="-219" y="720" width="659" height="40" as="geometry" />
        </mxCell>
        <mxCell id="lVmbNDNTV3lExJrPgGP0-96" value="" style="endArrow=classic;html=1;exitX=0.5;exitY=1;exitDx=0;exitDy=0;exitPerimeter=0;entryX=0.775;entryY=-0.075;entryDx=0;entryDy=0;entryPerimeter=0;" parent="1" source="lVmbNDNTV3lExJrPgGP0-72" target="lVmbNDNTV3lExJrPgGP0-94" edge="1">
          <mxGeometry width="50" height="50" relative="1" as="geometry">
            <mxPoint x="-50" y="640" as="sourcePoint" />
            <mxPoint x="177" y="717" as="targetPoint" />
          </mxGeometry>
        </mxCell>
        <mxCell id="lVmbNDNTV3lExJrPgGP0-97" value="未转码文件&lt;br&gt;Queue（redis）" style="text;html=1;strokeColor=none;fillColor=none;align=center;verticalAlign=middle;whiteSpace=wrap;rounded=0;" parent="1" vertex="1">
          <mxGeometry x="-579.5" y="664.5" width="67" height="20" as="geometry" />
        </mxCell>
        <mxCell id="lVmbNDNTV3lExJrPgGP0-99" value="待下载视频&lt;br&gt;Redis Queue" style="text;html=1;strokeColor=none;fillColor=none;align=center;verticalAlign=middle;whiteSpace=wrap;rounded=0;" parent="1" vertex="1">
          <mxGeometry x="142" y="501.5" width="76" height="20" as="geometry" />
        </mxCell>
        <mxCell id="lVmbNDNTV3lExJrPgGP0-102" value="读写&lt;br&gt;Video Schedule" style="text;html=1;strokeColor=none;fillColor=none;align=center;verticalAlign=middle;whiteSpace=wrap;rounded=0;" parent="1" vertex="1">
          <mxGeometry x="5" y="664.5" width="90" height="20" as="geometry" />
        </mxCell>
      </root>
    </mxGraphModel>
  </diagram>
  <diagram id="146U2Tn8OjZUwfgwUSaT" name="Page-2">
    <mxGraphModel dx="2249" dy="1963" grid="1" gridSize="10" guides="1" tooltips="1" connect="1" arrows="1" fold="1" page="1" pageScale="1" pageWidth="827" pageHeight="1169" math="0" shadow="0">
      <root>
        <mxCell id="sD3Oc_UBKOICYy7VW5Uh-0" />
        <mxCell id="sD3Oc_UBKOICYy7VW5Uh-1" parent="sD3Oc_UBKOICYy7VW5Uh-0" />
        <mxCell id="sD3Oc_UBKOICYy7VW5Uh-49" value="" style="rounded=0;whiteSpace=wrap;html=1;" parent="sD3Oc_UBKOICYy7VW5Uh-1" vertex="1">
          <mxGeometry x="-320" y="-100" width="1260" height="890" as="geometry" />
        </mxCell>
        <mxCell id="sD3Oc_UBKOICYy7VW5Uh-38" value="" style="rounded=0;whiteSpace=wrap;html=1;" parent="sD3Oc_UBKOICYy7VW5Uh-1" vertex="1">
          <mxGeometry x="372" y="100" width="430" height="430" as="geometry" />
        </mxCell>
        <mxCell id="sD3Oc_UBKOICYy7VW5Uh-21" value="" style="rounded=0;whiteSpace=wrap;html=1;" parent="sD3Oc_UBKOICYy7VW5Uh-1" vertex="1">
          <mxGeometry x="-215" y="105" width="430" height="495" as="geometry" />
        </mxCell>
        <mxCell id="sD3Oc_UBKOICYy7VW5Uh-2" value="运营" style="ellipse;whiteSpace=wrap;html=1;" parent="sD3Oc_UBKOICYy7VW5Uh-1" vertex="1">
          <mxGeometry x="245" y="14" width="80" height="50" as="geometry" />
        </mxCell>
        <mxCell id="sD3Oc_UBKOICYy7VW5Uh-3" value="FTP" style="rounded=0;whiteSpace=wrap;html=1;" parent="sD3Oc_UBKOICYy7VW5Uh-1" vertex="1">
          <mxGeometry x="80" y="120" width="120" height="40" as="geometry" />
        </mxCell>
        <mxCell id="sD3Oc_UBKOICYy7VW5Uh-4" value="Nas" style="rounded=1;whiteSpace=wrap;html=1;" parent="sD3Oc_UBKOICYy7VW5Uh-1" vertex="1">
          <mxGeometry x="-150" y="120" width="150" height="40" as="geometry" />
        </mxCell>
        <mxCell id="sD3Oc_UBKOICYy7VW5Uh-5" value="" style="endArrow=none;dashed=1;html=1;exitX=1;exitY=0.5;exitDx=0;exitDy=0;entryX=0;entryY=0.5;entryDx=0;entryDy=0;" parent="sD3Oc_UBKOICYy7VW5Uh-1" source="sD3Oc_UBKOICYy7VW5Uh-4" target="sD3Oc_UBKOICYy7VW5Uh-3" edge="1">
          <mxGeometry width="50" height="50" relative="1" as="geometry">
            <mxPoint x="40" y="130" as="sourcePoint" />
            <mxPoint x="90" y="80" as="targetPoint" />
          </mxGeometry>
        </mxCell>
        <mxCell id="sD3Oc_UBKOICYy7VW5Uh-6" value="" style="endArrow=classic;html=1;entryX=0.5;entryY=0;entryDx=0;entryDy=0;rounded=0;exitX=0;exitY=0.5;exitDx=0;exitDy=0;" parent="sD3Oc_UBKOICYy7VW5Uh-1" source="sD3Oc_UBKOICYy7VW5Uh-2" target="sD3Oc_UBKOICYy7VW5Uh-3" edge="1">
          <mxGeometry width="50" height="50" relative="1" as="geometry">
            <mxPoint x="200" y="40" as="sourcePoint" />
            <mxPoint x="280" y="120" as="targetPoint" />
            <Array as="points">
              <mxPoint x="140" y="40" />
            </Array>
          </mxGeometry>
        </mxCell>
        <mxCell id="sD3Oc_UBKOICYy7VW5Uh-7" value="转码" style="rounded=0;whiteSpace=wrap;html=1;" parent="sD3Oc_UBKOICYy7VW5Uh-1" vertex="1">
          <mxGeometry x="-10" y="200" width="80" height="40" as="geometry" />
        </mxCell>
        <mxCell id="sD3Oc_UBKOICYy7VW5Uh-8" value="" style="endArrow=classic;startArrow=classic;html=1;entryX=0.5;entryY=1;entryDx=0;entryDy=0;exitX=0.25;exitY=0;exitDx=0;exitDy=0;" parent="sD3Oc_UBKOICYy7VW5Uh-1" source="sD3Oc_UBKOICYy7VW5Uh-7" target="sD3Oc_UBKOICYy7VW5Uh-4" edge="1">
          <mxGeometry width="50" height="50" relative="1" as="geometry">
            <mxPoint x="60" y="230" as="sourcePoint" />
            <mxPoint x="110" y="180" as="targetPoint" />
          </mxGeometry>
        </mxCell>
        <mxCell id="sD3Oc_UBKOICYy7VW5Uh-9" value="数据库表 ：Video&lt;br&gt;" style="rounded=0;whiteSpace=wrap;html=1;" parent="sD3Oc_UBKOICYy7VW5Uh-1" vertex="1">
          <mxGeometry x="230" y="290" width="130" height="40" as="geometry" />
        </mxCell>
        <mxCell id="sD3Oc_UBKOICYy7VW5Uh-10" value="" style="endArrow=classic;html=1;exitX=0.5;exitY=1;exitDx=0;exitDy=0;entryX=0;entryY=0.25;entryDx=0;entryDy=0;rounded=0;" parent="sD3Oc_UBKOICYy7VW5Uh-1" source="sD3Oc_UBKOICYy7VW5Uh-7" target="sD3Oc_UBKOICYy7VW5Uh-9" edge="1">
          <mxGeometry width="50" height="50" relative="1" as="geometry">
            <mxPoint x="80" y="300" as="sourcePoint" />
            <mxPoint x="130" y="250" as="targetPoint" />
            <Array as="points">
              <mxPoint x="30" y="300" />
            </Array>
          </mxGeometry>
        </mxCell>
        <mxCell id="sD3Oc_UBKOICYy7VW5Uh-11" value="sports-web" style="rounded=0;whiteSpace=wrap;html=1;" parent="sD3Oc_UBKOICYy7VW5Uh-1" vertex="1">
          <mxGeometry x="-20" y="360" width="100" height="40" as="geometry" />
        </mxCell>
        <mxCell id="sD3Oc_UBKOICYy7VW5Uh-12" value="" style="endArrow=classic;html=1;exitX=0;exitY=0.75;exitDx=0;exitDy=0;entryX=0.5;entryY=0;entryDx=0;entryDy=0;rounded=0;" parent="sD3Oc_UBKOICYy7VW5Uh-1" source="sD3Oc_UBKOICYy7VW5Uh-9" target="sD3Oc_UBKOICYy7VW5Uh-11" edge="1">
          <mxGeometry width="50" height="50" relative="1" as="geometry">
            <mxPoint x="110" y="440" as="sourcePoint" />
            <mxPoint x="160" y="390" as="targetPoint" />
            <Array as="points">
              <mxPoint x="30" y="320" />
            </Array>
          </mxGeometry>
        </mxCell>
        <mxCell id="sD3Oc_UBKOICYy7VW5Uh-13" value="ResourceKey" style="text;html=1;strokeColor=none;fillColor=none;align=center;verticalAlign=middle;whiteSpace=wrap;rounded=0;" parent="sD3Oc_UBKOICYy7VW5Uh-1" vertex="1">
          <mxGeometry x="80" y="300" width="40" height="20" as="geometry" />
        </mxCell>
        <mxCell id="sD3Oc_UBKOICYy7VW5Uh-15" value="推流机器" style="rounded=0;whiteSpace=wrap;html=1;" parent="sD3Oc_UBKOICYy7VW5Uh-1" vertex="1">
          <mxGeometry x="-140" y="440" width="100" height="40" as="geometry" />
        </mxCell>
        <mxCell id="sD3Oc_UBKOICYy7VW5Uh-16" value="" style="endArrow=classic;html=1;exitX=0;exitY=0.5;exitDx=0;exitDy=0;entryX=0.5;entryY=0;entryDx=0;entryDy=0;rounded=0;" parent="sD3Oc_UBKOICYy7VW5Uh-1" source="sD3Oc_UBKOICYy7VW5Uh-11" target="sD3Oc_UBKOICYy7VW5Uh-15" edge="1">
          <mxGeometry width="50" height="50" relative="1" as="geometry">
            <mxPoint x="30" y="470" as="sourcePoint" />
            <mxPoint x="80" y="420" as="targetPoint" />
            <Array as="points">
              <mxPoint x="-90" y="380" />
            </Array>
          </mxGeometry>
        </mxCell>
        <mxCell id="sD3Oc_UBKOICYy7VW5Uh-17" value="节目单" style="text;html=1;strokeColor=none;fillColor=none;align=center;verticalAlign=middle;whiteSpace=wrap;rounded=0;" parent="sD3Oc_UBKOICYy7VW5Uh-1" vertex="1">
          <mxGeometry x="-90" y="390" width="40" height="20" as="geometry" />
        </mxCell>
        <mxCell id="sD3Oc_UBKOICYy7VW5Uh-18" value="FTP" style="rounded=0;whiteSpace=wrap;html=1;" parent="sD3Oc_UBKOICYy7VW5Uh-1" vertex="1">
          <mxGeometry x="420" y="120" width="100" height="40" as="geometry" />
        </mxCell>
        <mxCell id="sD3Oc_UBKOICYy7VW5Uh-19" value="" style="endArrow=classic;html=1;entryX=0.5;entryY=0;entryDx=0;entryDy=0;rounded=0;exitX=1;exitY=0.5;exitDx=0;exitDy=0;" parent="sD3Oc_UBKOICYy7VW5Uh-1" source="sD3Oc_UBKOICYy7VW5Uh-2" target="sD3Oc_UBKOICYy7VW5Uh-18" edge="1">
          <mxGeometry width="50" height="50" relative="1" as="geometry">
            <mxPoint x="360" y="40" as="sourcePoint" />
            <mxPoint x="180" y="130" as="targetPoint" />
            <Array as="points">
              <mxPoint x="470" y="40" />
            </Array>
          </mxGeometry>
        </mxCell>
        <mxCell id="sD3Oc_UBKOICYy7VW5Uh-20" value="转码" style="rounded=0;whiteSpace=wrap;html=1;" parent="sD3Oc_UBKOICYy7VW5Uh-1" vertex="1">
          <mxGeometry x="421" y="200" width="80" height="40" as="geometry" />
        </mxCell>
        <mxCell id="sD3Oc_UBKOICYy7VW5Uh-23" value="OSS" style="rounded=1;whiteSpace=wrap;html=1;" parent="sD3Oc_UBKOICYy7VW5Uh-1" vertex="1">
          <mxGeometry x="620" y="120" width="110" height="40" as="geometry" />
        </mxCell>
        <mxCell id="sD3Oc_UBKOICYy7VW5Uh-25" value="" style="endArrow=classic;html=1;exitX=0.42;exitY=0.975;exitDx=0;exitDy=0;entryX=0.5;entryY=0;entryDx=0;entryDy=0;exitPerimeter=0;" parent="sD3Oc_UBKOICYy7VW5Uh-1" source="sD3Oc_UBKOICYy7VW5Uh-18" target="sD3Oc_UBKOICYy7VW5Uh-20" edge="1">
          <mxGeometry width="50" height="50" relative="1" as="geometry">
            <mxPoint x="620" y="230" as="sourcePoint" />
            <mxPoint x="670" y="180" as="targetPoint" />
          </mxGeometry>
        </mxCell>
        <mxCell id="sD3Oc_UBKOICYy7VW5Uh-27" value="" style="endArrow=classic;html=1;exitX=1;exitY=0.5;exitDx=0;exitDy=0;entryX=0.5;entryY=1;entryDx=0;entryDy=0;rounded=0;" parent="sD3Oc_UBKOICYy7VW5Uh-1" source="sD3Oc_UBKOICYy7VW5Uh-20" target="sD3Oc_UBKOICYy7VW5Uh-23" edge="1">
          <mxGeometry width="50" height="50" relative="1" as="geometry">
            <mxPoint x="570" y="250" as="sourcePoint" />
            <mxPoint x="620" y="200" as="targetPoint" />
            <Array as="points">
              <mxPoint x="675" y="220" />
            </Array>
          </mxGeometry>
        </mxCell>
        <mxCell id="sD3Oc_UBKOICYy7VW5Uh-28" value="" style="endArrow=classic;html=1;exitX=0.5;exitY=1;exitDx=0;exitDy=0;entryX=1;entryY=0.25;entryDx=0;entryDy=0;rounded=0;" parent="sD3Oc_UBKOICYy7VW5Uh-1" source="sD3Oc_UBKOICYy7VW5Uh-20" target="sD3Oc_UBKOICYy7VW5Uh-9" edge="1">
          <mxGeometry width="50" height="50" relative="1" as="geometry">
            <mxPoint x="460" y="350" as="sourcePoint" />
            <mxPoint x="400" y="300" as="targetPoint" />
            <Array as="points">
              <mxPoint x="460" y="300" />
            </Array>
          </mxGeometry>
        </mxCell>
        <mxCell id="sD3Oc_UBKOICYy7VW5Uh-29" value="VideoUrl" style="text;html=1;strokeColor=none;fillColor=none;align=center;verticalAlign=middle;whiteSpace=wrap;rounded=0;" parent="sD3Oc_UBKOICYy7VW5Uh-1" vertex="1">
          <mxGeometry x="460" y="300" width="40" height="20" as="geometry" />
        </mxCell>
        <mxCell id="sD3Oc_UBKOICYy7VW5Uh-30" value="sports-admin" style="rounded=0;whiteSpace=wrap;html=1;" parent="sD3Oc_UBKOICYy7VW5Uh-1" vertex="1">
          <mxGeometry x="440" y="360" width="100" height="40" as="geometry" />
        </mxCell>
        <mxCell id="sD3Oc_UBKOICYy7VW5Uh-31" value="" style="endArrow=classic;html=1;exitX=1;exitY=0.75;exitDx=0;exitDy=0;entryX=0.25;entryY=0;entryDx=0;entryDy=0;rounded=0;" parent="sD3Oc_UBKOICYy7VW5Uh-1" source="sD3Oc_UBKOICYy7VW5Uh-9" target="sD3Oc_UBKOICYy7VW5Uh-30" edge="1">
          <mxGeometry width="50" height="50" relative="1" as="geometry">
            <mxPoint x="400" y="320" as="sourcePoint" />
            <mxPoint x="560" y="310" as="targetPoint" />
            <Array as="points">
              <mxPoint x="465" y="320" />
            </Array>
          </mxGeometry>
        </mxCell>
        <mxCell id="sD3Oc_UBKOICYy7VW5Uh-32" value="文件开播" style="rounded=0;whiteSpace=wrap;html=1;" parent="sD3Oc_UBKOICYy7VW5Uh-1" vertex="1">
          <mxGeometry x="618.5" y="570" width="100" height="40" as="geometry" />
        </mxCell>
        <mxCell id="sD3Oc_UBKOICYy7VW5Uh-33" value="" style="endArrow=classic;html=1;exitX=1;exitY=0.5;exitDx=0;exitDy=0;entryX=0.5;entryY=0;entryDx=0;entryDy=0;rounded=0;" parent="sD3Oc_UBKOICYy7VW5Uh-1" source="sD3Oc_UBKOICYy7VW5Uh-30" target="sD3Oc_UBKOICYy7VW5Uh-32" edge="1">
          <mxGeometry width="50" height="50" relative="1" as="geometry">
            <mxPoint x="630" y="450" as="sourcePoint" />
            <mxPoint x="680" y="400" as="targetPoint" />
            <Array as="points">
              <mxPoint x="669" y="380" />
            </Array>
          </mxGeometry>
        </mxCell>
        <mxCell id="sD3Oc_UBKOICYy7VW5Uh-34" value="节目单" style="text;html=1;strokeColor=none;fillColor=none;align=center;verticalAlign=middle;whiteSpace=wrap;rounded=0;" parent="sD3Oc_UBKOICYy7VW5Uh-1" vertex="1">
          <mxGeometry x="610" y="390" width="40" height="20" as="geometry" />
        </mxCell>
        <mxCell id="sD3Oc_UBKOICYy7VW5Uh-36" value="流机器" style="rounded=0;whiteSpace=wrap;html=1;" parent="sD3Oc_UBKOICYy7VW5Uh-1" vertex="1">
          <mxGeometry x="-140" y="530" width="100" height="40" as="geometry" />
        </mxCell>
        <mxCell id="sD3Oc_UBKOICYy7VW5Uh-37" value="" style="endArrow=classic;html=1;exitX=0.5;exitY=1;exitDx=0;exitDy=0;entryX=0.5;entryY=0;entryDx=0;entryDy=0;" parent="sD3Oc_UBKOICYy7VW5Uh-1" source="sD3Oc_UBKOICYy7VW5Uh-15" target="sD3Oc_UBKOICYy7VW5Uh-36" edge="1">
          <mxGeometry width="50" height="50" relative="1" as="geometry">
            <mxPoint y="500" as="sourcePoint" />
            <mxPoint x="50" y="450" as="targetPoint" />
          </mxGeometry>
        </mxCell>
        <mxCell id="sD3Oc_UBKOICYy7VW5Uh-41" value="" style="endArrow=none;dashed=1;html=1;entryX=0.25;entryY=1;entryDx=0;entryDy=0;exitX=0.25;exitY=0;exitDx=0;exitDy=0;" parent="sD3Oc_UBKOICYy7VW5Uh-1" source="sD3Oc_UBKOICYy7VW5Uh-15" target="sD3Oc_UBKOICYy7VW5Uh-4" edge="1">
          <mxGeometry width="50" height="50" relative="1" as="geometry">
            <mxPoint x="-150" y="300" as="sourcePoint" />
            <mxPoint x="-100" y="250" as="targetPoint" />
          </mxGeometry>
        </mxCell>
        <mxCell id="sD3Oc_UBKOICYy7VW5Uh-42" value="" style="endArrow=none;dashed=1;html=1;entryX=0.75;entryY=1;entryDx=0;entryDy=0;exitX=0.855;exitY=0;exitDx=0;exitDy=0;rounded=0;exitPerimeter=0;" parent="sD3Oc_UBKOICYy7VW5Uh-1" source="sD3Oc_UBKOICYy7VW5Uh-32" target="sD3Oc_UBKOICYy7VW5Uh-23" edge="1">
          <mxGeometry width="50" height="50" relative="1" as="geometry">
            <mxPoint x="710" y="350" as="sourcePoint" />
            <mxPoint x="760" y="300" as="targetPoint" />
            <Array as="points" />
          </mxGeometry>
        </mxCell>
        <mxCell id="sD3Oc_UBKOICYy7VW5Uh-43" value="" style="shape=flexArrow;endArrow=classic;html=1;exitX=0.5;exitY=1;exitDx=0;exitDy=0;" parent="sD3Oc_UBKOICYy7VW5Uh-1" source="sD3Oc_UBKOICYy7VW5Uh-36" edge="1">
          <mxGeometry width="50" height="50" relative="1" as="geometry">
            <mxPoint y="670" as="sourcePoint" />
            <mxPoint x="-90" y="640" as="targetPoint" />
          </mxGeometry>
        </mxCell>
        <mxCell id="sD3Oc_UBKOICYy7VW5Uh-44" value="" style="shape=flexArrow;endArrow=classic;html=1;exitX=0.5;exitY=1;exitDx=0;exitDy=0;" parent="sD3Oc_UBKOICYy7VW5Uh-1" source="sD3Oc_UBKOICYy7VW5Uh-32" target="sD3Oc_UBKOICYy7VW5Uh-51" edge="1">
          <mxGeometry width="50" height="50" relative="1" as="geometry">
            <mxPoint x="490" y="565" as="sourcePoint" />
            <mxPoint x="490" y="635" as="targetPoint" />
          </mxGeometry>
        </mxCell>
        <mxCell id="sD3Oc_UBKOICYy7VW5Uh-45" value="" style="endArrow=none;dashed=1;html=1;exitX=0.75;exitY=0;exitDx=0;exitDy=0;entryX=0.25;entryY=0;entryDx=0;entryDy=0;rounded=0;" parent="sD3Oc_UBKOICYy7VW5Uh-1" source="sD3Oc_UBKOICYy7VW5Uh-4" target="sD3Oc_UBKOICYy7VW5Uh-23" edge="1">
          <mxGeometry width="50" height="50" relative="1" as="geometry">
            <mxPoint x="-30" y="80" as="sourcePoint" />
            <mxPoint x="20" y="30" as="targetPoint" />
            <Array as="points">
              <mxPoint x="-37" y="-30" />
              <mxPoint x="648" y="-30" />
            </Array>
          </mxGeometry>
        </mxCell>
        <mxCell id="sD3Oc_UBKOICYy7VW5Uh-46" value="迁移" style="text;html=1;strokeColor=none;fillColor=none;align=center;verticalAlign=middle;whiteSpace=wrap;rounded=0;" parent="sD3Oc_UBKOICYy7VW5Uh-1" vertex="1">
          <mxGeometry x="275" y="-60" width="40" height="20" as="geometry" />
        </mxCell>
        <mxCell id="sD3Oc_UBKOICYy7VW5Uh-47" value="&lt;b&gt;&lt;font style=&quot;font-size: 14px&quot;&gt;旧系统&lt;/font&gt;&lt;/b&gt;" style="text;html=1;strokeColor=none;fillColor=none;align=center;verticalAlign=middle;whiteSpace=wrap;rounded=0;" parent="sD3Oc_UBKOICYy7VW5Uh-1" vertex="1">
          <mxGeometry x="-214" y="108" width="50" height="20" as="geometry" />
        </mxCell>
        <mxCell id="sD3Oc_UBKOICYy7VW5Uh-48" value="&lt;b&gt;&lt;font style=&quot;font-size: 14px&quot;&gt;新系统&lt;/font&gt;&lt;/b&gt;" style="text;html=1;strokeColor=none;fillColor=none;align=center;verticalAlign=middle;whiteSpace=wrap;rounded=0;" parent="sD3Oc_UBKOICYy7VW5Uh-1" vertex="1">
          <mxGeometry x="750" y="105" width="50" height="20" as="geometry" />
        </mxCell>
        <mxCell id="sD3Oc_UBKOICYy7VW5Uh-50" value="sports-web" style="rounded=0;whiteSpace=wrap;html=1;" parent="sD3Oc_UBKOICYy7VW5Uh-1" vertex="1">
          <mxGeometry x="440" y="460" width="100" height="40" as="geometry" />
        </mxCell>
        <mxCell id="sD3Oc_UBKOICYy7VW5Uh-56" value="回调" style="text;html=1;strokeColor=none;fillColor=none;align=center;verticalAlign=middle;whiteSpace=wrap;rounded=0;" parent="sD3Oc_UBKOICYy7VW5Uh-1" vertex="1">
          <mxGeometry x="490" y="637" width="40" height="20" as="geometry" />
        </mxCell>
        <mxCell id="sD3Oc_UBKOICYy7VW5Uh-57" value="" style="endArrow=classic;html=1;exitX=0.25;exitY=0;exitDx=0;exitDy=0;entryX=0.25;entryY=1;entryDx=0;entryDy=0;rounded=0;" parent="sD3Oc_UBKOICYy7VW5Uh-1" source="sD3Oc_UBKOICYy7VW5Uh-50" target="sD3Oc_UBKOICYy7VW5Uh-30" edge="1">
          <mxGeometry width="50" height="50" relative="1" as="geometry">
            <mxPoint x="620" y="460" as="sourcePoint" />
            <mxPoint x="670" y="410" as="targetPoint" />
            <Array as="points" />
          </mxGeometry>
        </mxCell>
        <mxCell id="sD3Oc_UBKOICYy7VW5Uh-58" value="更新节目单" style="text;html=1;strokeColor=none;fillColor=none;align=center;verticalAlign=middle;whiteSpace=wrap;rounded=0;" parent="sD3Oc_UBKOICYy7VW5Uh-1" vertex="1">
          <mxGeometry x="398" y="435" width="63" height="20" as="geometry" />
        </mxCell>
        <mxCell id="sD3Oc_UBKOICYy7VW5Uh-51" value="CDN" style="rounded=0;whiteSpace=wrap;html=1;" parent="sD3Oc_UBKOICYy7VW5Uh-1" vertex="1">
          <mxGeometry x="618.5" y="647" width="100" height="40" as="geometry" />
        </mxCell>
        <mxCell id="sD3Oc_UBKOICYy7VW5Uh-60" value="" style="endArrow=classic;html=1;exitX=0;exitY=0.5;exitDx=0;exitDy=0;entryX=0.5;entryY=1;entryDx=0;entryDy=0;rounded=0;" parent="sD3Oc_UBKOICYy7VW5Uh-1" source="sD3Oc_UBKOICYy7VW5Uh-51" target="sD3Oc_UBKOICYy7VW5Uh-50" edge="1">
          <mxGeometry width="50" height="50" relative="1" as="geometry">
            <mxPoint x="460" y="680" as="sourcePoint" />
            <mxPoint x="510" y="630" as="targetPoint" />
            <Array as="points">
              <mxPoint x="490" y="667" />
            </Array>
          </mxGeometry>
        </mxCell>
      </root>
    </mxGraphModel>
  </diagram>
  <diagram id="mv_UOeFLAGZZQWZeDzoR" name="Page-3">
    <mxGraphModel dx="1422" dy="794" grid="1" gridSize="10" guides="1" tooltips="1" connect="1" arrows="1" fold="1" page="1" pageScale="1" pageWidth="827" pageHeight="1169" math="0" shadow="0">
      <root>
        <mxCell id="CZPeFHUE--F_MD0TzOIN-0" />
        <mxCell id="CZPeFHUE--F_MD0TzOIN-1" parent="CZPeFHUE--F_MD0TzOIN-0" />
        <mxCell id="VmyDUueD6QinXuocbMbC-105" value="" style="rounded=0;whiteSpace=wrap;html=1;" vertex="1" parent="CZPeFHUE--F_MD0TzOIN-1">
          <mxGeometry x="970" y="155" width="710" height="435" as="geometry" />
        </mxCell>
        <mxCell id="VmyDUueD6QinXuocbMbC-104" value="" style="rounded=1;whiteSpace=wrap;html=1;" vertex="1" parent="CZPeFHUE--F_MD0TzOIN-1">
          <mxGeometry x="1170" y="415" width="210" height="50" as="geometry" />
        </mxCell>
        <mxCell id="VmyDUueD6QinXuocbMbC-102" value="" style="rounded=1;whiteSpace=wrap;html=1;" vertex="1" parent="CZPeFHUE--F_MD0TzOIN-1">
          <mxGeometry x="1090.25" y="290" width="367.5" height="101" as="geometry" />
        </mxCell>
        <mxCell id="VmyDUueD6QinXuocbMbC-101" value="" style="rounded=1;whiteSpace=wrap;html=1;" vertex="1" parent="CZPeFHUE--F_MD0TzOIN-1">
          <mxGeometry x="1199" y="215" width="150" height="50" as="geometry" />
        </mxCell>
        <mxCell id="VmyDUueD6QinXuocbMbC-100" value="" style="rounded=0;whiteSpace=wrap;html=1;" vertex="1" parent="CZPeFHUE--F_MD0TzOIN-1">
          <mxGeometry x="1030" y="940" width="720" height="590" as="geometry" />
        </mxCell>
        <mxCell id="VmyDUueD6QinXuocbMbC-94" value="" style="rounded=1;whiteSpace=wrap;html=1;fillColor=#eeeeee;strokeColor=#36393d;" vertex="1" parent="CZPeFHUE--F_MD0TzOIN-1">
          <mxGeometry x="1269" y="1360" width="220" height="60" as="geometry" />
        </mxCell>
        <mxCell id="VmyDUueD6QinXuocbMbC-93" value="" style="rounded=1;whiteSpace=wrap;html=1;fillColor=#eeeeee;strokeColor=#36393d;" vertex="1" parent="CZPeFHUE--F_MD0TzOIN-1">
          <mxGeometry x="1180" y="1178.75" width="400" height="150" as="geometry" />
        </mxCell>
        <mxCell id="VmyDUueD6QinXuocbMbC-90" value="" style="rounded=1;whiteSpace=wrap;html=1;fillColor=#eeeeee;strokeColor=#36393d;" vertex="1" parent="CZPeFHUE--F_MD0TzOIN-1">
          <mxGeometry x="1270" y="1060" width="220" height="100" as="geometry" />
        </mxCell>
        <mxCell id="VmyDUueD6QinXuocbMbC-89" value="" style="rounded=1;whiteSpace=wrap;html=1;fillColor=#eeeeee;strokeColor=#36393d;" vertex="1" parent="CZPeFHUE--F_MD0TzOIN-1">
          <mxGeometry x="1249" y="980" width="249" height="60" as="geometry" />
        </mxCell>
        <mxCell id="QCG49On7Eu0onJou8F4M-1" value="" style="rounded=0;whiteSpace=wrap;html=1;" parent="CZPeFHUE--F_MD0TzOIN-1" vertex="1">
          <mxGeometry x="10" y="67.5" width="690" height="570" as="geometry" />
        </mxCell>
        <mxCell id="OeqpftmFz6iRXrqz09ya-8" value="" style="rounded=0;whiteSpace=wrap;html=1;" parent="CZPeFHUE--F_MD0TzOIN-1" vertex="1">
          <mxGeometry x="540" y="233.75" width="120" height="122.5" as="geometry" />
        </mxCell>
        <mxCell id="OeqpftmFz6iRXrqz09ya-6" value="" style="rounded=0;whiteSpace=wrap;html=1;fillColor=#f5f5f5;strokeColor=#666666;fontColor=#333333;" parent="CZPeFHUE--F_MD0TzOIN-1" vertex="1">
          <mxGeometry x="191" y="180" width="289" height="230" as="geometry" />
        </mxCell>
        <mxCell id="CZPeFHUE--F_MD0TzOIN-2" value="Nas盘" style="rounded=0;whiteSpace=wrap;html=1;" parent="CZPeFHUE--F_MD0TzOIN-1" vertex="1">
          <mxGeometry x="41" y="332.5" width="80" height="40" as="geometry" />
        </mxCell>
        <mxCell id="D0Zg4RWCT6qEsxM6SNhk-0" value="&lt;b style=&quot;font-size: 14px&quot;&gt;转码脚本&lt;/b&gt;" style="rounded=0;whiteSpace=wrap;html=1;fillColor=#ffe6cc;strokeColor=#d79b00;" parent="CZPeFHUE--F_MD0TzOIN-1" vertex="1">
          <mxGeometry x="212" y="301.5" width="79" height="40" as="geometry" />
        </mxCell>
        <mxCell id="fuDSSuivxnKb5LPcE7fN-0" value="&lt;font style=&quot;font-size: 14px&quot;&gt;&lt;b&gt;推流脚本&lt;/b&gt;&lt;/font&gt;" style="rounded=0;whiteSpace=wrap;html=1;fillColor=#fff2cc;strokeColor=#d6b656;" parent="CZPeFHUE--F_MD0TzOIN-1" vertex="1">
          <mxGeometry x="212" y="359" width="78" height="40" as="geometry" />
        </mxCell>
        <mxCell id="fuDSSuivxnKb5LPcE7fN-1" value="FTP服务器" style="rounded=0;whiteSpace=wrap;html=1;" parent="CZPeFHUE--F_MD0TzOIN-1" vertex="1">
          <mxGeometry x="41" y="190" width="80" height="40" as="geometry" />
        </mxCell>
        <mxCell id="qH-5FT_md2qgNuBcZanj-0" value="" style="endArrow=classic;startArrow=classic;html=1;entryX=0.5;entryY=1;entryDx=0;entryDy=0;exitX=0.5;exitY=0;exitDx=0;exitDy=0;" parent="CZPeFHUE--F_MD0TzOIN-1" source="CZPeFHUE--F_MD0TzOIN-2" target="fuDSSuivxnKb5LPcE7fN-1" edge="1">
          <mxGeometry width="50" height="50" relative="1" as="geometry">
            <mxPoint x="211" y="330" as="sourcePoint" />
            <mxPoint x="261" y="280" as="targetPoint" />
          </mxGeometry>
        </mxCell>
        <mxCell id="qH-5FT_md2qgNuBcZanj-6" value="" style="endArrow=classic;html=1;entryX=0.5;entryY=0;entryDx=0;entryDy=0;exitX=0;exitY=0.5;exitDx=0;exitDy=0;rounded=0;" parent="CZPeFHUE--F_MD0TzOIN-1" source="AmzscX7GAYkfa9U7guXT-3" target="fuDSSuivxnKb5LPcE7fN-1" edge="1">
          <mxGeometry width="50" height="50" relative="1" as="geometry">
            <mxPoint x="111" y="180" as="sourcePoint" />
            <mxPoint x="311" y="180" as="targetPoint" />
            <Array as="points">
              <mxPoint x="81" y="120" />
            </Array>
          </mxGeometry>
        </mxCell>
        <mxCell id="_sBgSyyMwp1oRgQ0mhEg-0" value="流服务器" style="rounded=0;whiteSpace=wrap;html=1;" parent="CZPeFHUE--F_MD0TzOIN-1" vertex="1">
          <mxGeometry x="221" y="440" width="120" height="40" as="geometry" />
        </mxCell>
        <mxCell id="AmzscX7GAYkfa9U7guXT-0" value="导播台" style="rounded=0;whiteSpace=wrap;html=1;" parent="CZPeFHUE--F_MD0TzOIN-1" vertex="1">
          <mxGeometry x="221" y="510" width="120" height="40" as="geometry" />
        </mxCell>
        <mxCell id="AmzscX7GAYkfa9U7guXT-1" value="" style="rounded=0;whiteSpace=wrap;html=1;fillColor=#dae8fc;strokeColor=#6c8ebf;" parent="CZPeFHUE--F_MD0TzOIN-1" vertex="1">
          <mxGeometry x="211" y="200" width="190" height="90" as="geometry" />
        </mxCell>
        <mxCell id="AmzscX7GAYkfa9U7guXT-2" value="" style="endArrow=classic;html=1;exitX=1;exitY=0.5;exitDx=0;exitDy=0;entryX=0.25;entryY=0;entryDx=0;entryDy=0;rounded=0;" parent="CZPeFHUE--F_MD0TzOIN-1" source="AmzscX7GAYkfa9U7guXT-3" target="AmzscX7GAYkfa9U7guXT-1" edge="1">
          <mxGeometry width="50" height="50" relative="1" as="geometry">
            <mxPoint x="126" y="180" as="sourcePoint" />
            <mxPoint x="351" y="150" as="targetPoint" />
            <Array as="points">
              <mxPoint x="259" y="120" />
            </Array>
          </mxGeometry>
        </mxCell>
        <mxCell id="AmzscX7GAYkfa9U7guXT-3" value="运营" style="ellipse;whiteSpace=wrap;html=1;aspect=fixed;" parent="CZPeFHUE--F_MD0TzOIN-1" vertex="1">
          <mxGeometry x="151" y="100" width="40" height="40" as="geometry" />
        </mxCell>
        <mxCell id="I4BQfiNTwTDllPjpmVwz-0" value="Redis" style="rounded=0;whiteSpace=wrap;html=1;" parent="CZPeFHUE--F_MD0TzOIN-1" vertex="1">
          <mxGeometry x="560" y="248.75" width="80" height="37.5" as="geometry" />
        </mxCell>
        <mxCell id="2nZsMRW8wpVQDphOc-bG-0" value="MySQL" style="rounded=0;whiteSpace=wrap;html=1;" parent="CZPeFHUE--F_MD0TzOIN-1" vertex="1">
          <mxGeometry x="560" y="306.25" width="80" height="37.5" as="geometry" />
        </mxCell>
        <mxCell id="2nZsMRW8wpVQDphOc-bG-1" value="" style="endArrow=classic;html=1;exitX=0.5;exitY=1;exitDx=0;exitDy=0;entryX=0.25;entryY=0;entryDx=0;entryDy=0;" parent="CZPeFHUE--F_MD0TzOIN-1" source="fuDSSuivxnKb5LPcE7fN-0" target="_sBgSyyMwp1oRgQ0mhEg-0" edge="1">
          <mxGeometry width="50" height="50" relative="1" as="geometry">
            <mxPoint x="491" y="540" as="sourcePoint" />
            <mxPoint x="541" y="490" as="targetPoint" />
          </mxGeometry>
        </mxCell>
        <mxCell id="2nZsMRW8wpVQDphOc-bG-2" value="" style="endArrow=classic;html=1;exitX=0.25;exitY=1;exitDx=0;exitDy=0;entryX=0.25;entryY=0;entryDx=0;entryDy=0;" parent="CZPeFHUE--F_MD0TzOIN-1" source="_sBgSyyMwp1oRgQ0mhEg-0" target="AmzscX7GAYkfa9U7guXT-0" edge="1">
          <mxGeometry width="50" height="50" relative="1" as="geometry">
            <mxPoint x="401" y="530" as="sourcePoint" />
            <mxPoint x="451" y="480" as="targetPoint" />
          </mxGeometry>
        </mxCell>
        <mxCell id="OeqpftmFz6iRXrqz09ya-0" value="&lt;font style=&quot;font-size: 14px&quot;&gt;&lt;b&gt;管理后台&lt;/b&gt;&lt;/font&gt;" style="text;html=1;strokeColor=none;fillColor=none;align=center;verticalAlign=middle;whiteSpace=wrap;rounded=0;" parent="CZPeFHUE--F_MD0TzOIN-1" vertex="1">
          <mxGeometry x="281" y="200" width="60" height="20" as="geometry" />
        </mxCell>
        <mxCell id="OeqpftmFz6iRXrqz09ya-1" value="节目单管理" style="rounded=1;whiteSpace=wrap;html=1;" parent="CZPeFHUE--F_MD0TzOIN-1" vertex="1">
          <mxGeometry x="221" y="230" width="70" height="20" as="geometry" />
        </mxCell>
        <mxCell id="OeqpftmFz6iRXrqz09ya-2" value="推流管理" style="rounded=1;whiteSpace=wrap;html=1;" parent="CZPeFHUE--F_MD0TzOIN-1" vertex="1">
          <mxGeometry x="311" y="230" width="70" height="20" as="geometry" />
        </mxCell>
        <mxCell id="OeqpftmFz6iRXrqz09ya-3" value="转码管理" style="rounded=1;whiteSpace=wrap;html=1;" parent="CZPeFHUE--F_MD0TzOIN-1" vertex="1">
          <mxGeometry x="221" y="260" width="70" height="20" as="geometry" />
        </mxCell>
        <mxCell id="OeqpftmFz6iRXrqz09ya-7" value="" style="shape=flexArrow;endArrow=classic;startArrow=classic;html=1;entryX=0;entryY=0.75;entryDx=0;entryDy=0;exitX=1;exitY=0.5;exitDx=0;exitDy=0;" parent="CZPeFHUE--F_MD0TzOIN-1" source="CZPeFHUE--F_MD0TzOIN-2" target="OeqpftmFz6iRXrqz09ya-6" edge="1">
          <mxGeometry width="50" height="50" relative="1" as="geometry">
            <mxPoint x="111" y="500" as="sourcePoint" />
            <mxPoint x="161" y="450" as="targetPoint" />
          </mxGeometry>
        </mxCell>
        <mxCell id="OeqpftmFz6iRXrqz09ya-9" value="" style="shape=flexArrow;endArrow=classic;startArrow=classic;html=1;entryX=0;entryY=0.5;entryDx=0;entryDy=0;exitX=1;exitY=0.5;exitDx=0;exitDy=0;" parent="CZPeFHUE--F_MD0TzOIN-1" source="OeqpftmFz6iRXrqz09ya-6" target="OeqpftmFz6iRXrqz09ya-8" edge="1">
          <mxGeometry width="50" height="50" relative="1" as="geometry">
            <mxPoint x="551" y="530" as="sourcePoint" />
            <mxPoint x="601" y="480" as="targetPoint" />
          </mxGeometry>
        </mxCell>
        <mxCell id="QCG49On7Eu0onJou8F4M-3" value="" style="rounded=0;whiteSpace=wrap;html=1;" parent="CZPeFHUE--F_MD0TzOIN-1" vertex="1">
          <mxGeometry x="500" y="1106.25" width="120" height="122.5" as="geometry" />
        </mxCell>
        <mxCell id="QCG49On7Eu0onJou8F4M-4" value="" style="rounded=0;whiteSpace=wrap;html=1;fillColor=#f5f5f5;strokeColor=#666666;fontColor=#333333;" parent="CZPeFHUE--F_MD0TzOIN-1" vertex="1">
          <mxGeometry x="211" y="1052.5" width="229" height="367.5" as="geometry" />
        </mxCell>
        <mxCell id="QCG49On7Eu0onJou8F4M-6" value="" style="rounded=0;whiteSpace=wrap;html=1;fillColor=#ffe6cc;strokeColor=#d79b00;" parent="CZPeFHUE--F_MD0TzOIN-1" vertex="1">
          <mxGeometry x="231" y="1188.75" width="199" height="151.25" as="geometry" />
        </mxCell>
        <mxCell id="QCG49On7Eu0onJou8F4M-10" value="" style="endArrow=classic;html=1;entryX=0.5;entryY=0;entryDx=0;entryDy=0;exitX=0;exitY=0.5;exitDx=0;exitDy=0;rounded=0;" parent="CZPeFHUE--F_MD0TzOIN-1" source="QCG49On7Eu0onJou8F4M-15" edge="1">
          <mxGeometry width="50" height="50" relative="1" as="geometry">
            <mxPoint x="131" y="1052.5" as="sourcePoint" />
            <mxPoint x="101" y="1052.5" as="targetPoint" />
            <Array as="points">
              <mxPoint x="101" y="993" />
            </Array>
          </mxGeometry>
        </mxCell>
        <mxCell id="QCG49On7Eu0onJou8F4M-13" value="" style="rounded=0;whiteSpace=wrap;html=1;fillColor=#dae8fc;strokeColor=#6c8ebf;" parent="CZPeFHUE--F_MD0TzOIN-1" vertex="1">
          <mxGeometry x="231" y="1072.5" width="190" height="90" as="geometry" />
        </mxCell>
        <mxCell id="QCG49On7Eu0onJou8F4M-14" value="" style="endArrow=classic;html=1;exitX=1;exitY=0.5;exitDx=0;exitDy=0;entryX=0.25;entryY=0;entryDx=0;entryDy=0;rounded=0;" parent="CZPeFHUE--F_MD0TzOIN-1" source="QCG49On7Eu0onJou8F4M-15" target="QCG49On7Eu0onJou8F4M-13" edge="1">
          <mxGeometry width="50" height="50" relative="1" as="geometry">
            <mxPoint x="146" y="1052.5" as="sourcePoint" />
            <mxPoint x="371" y="1022.5" as="targetPoint" />
            <Array as="points">
              <mxPoint x="279" y="993" />
            </Array>
          </mxGeometry>
        </mxCell>
        <mxCell id="QCG49On7Eu0onJou8F4M-15" value="运营" style="ellipse;whiteSpace=wrap;html=1;aspect=fixed;" parent="CZPeFHUE--F_MD0TzOIN-1" vertex="1">
          <mxGeometry x="191" y="972.5" width="40" height="40" as="geometry" />
        </mxCell>
        <mxCell id="QCG49On7Eu0onJou8F4M-16" value="Redis" style="rounded=0;whiteSpace=wrap;html=1;" parent="CZPeFHUE--F_MD0TzOIN-1" vertex="1">
          <mxGeometry x="520" y="1121.25" width="80" height="37.5" as="geometry" />
        </mxCell>
        <mxCell id="QCG49On7Eu0onJou8F4M-17" value="MySQL" style="rounded=0;whiteSpace=wrap;html=1;" parent="CZPeFHUE--F_MD0TzOIN-1" vertex="1">
          <mxGeometry x="520" y="1178.75" width="80" height="37.5" as="geometry" />
        </mxCell>
        <mxCell id="QCG49On7Eu0onJou8F4M-20" value="&lt;font style=&quot;font-size: 14px&quot;&gt;&lt;b&gt;管理后台&lt;/b&gt;&lt;/font&gt;" style="text;html=1;strokeColor=none;fillColor=none;align=center;verticalAlign=middle;whiteSpace=wrap;rounded=0;" parent="CZPeFHUE--F_MD0TzOIN-1" vertex="1">
          <mxGeometry x="301" y="1072.5" width="60" height="20" as="geometry" />
        </mxCell>
        <mxCell id="QCG49On7Eu0onJou8F4M-21" value="节目单管理" style="rounded=1;whiteSpace=wrap;html=1;" parent="CZPeFHUE--F_MD0TzOIN-1" vertex="1">
          <mxGeometry x="241" y="1102.5" width="70" height="20" as="geometry" />
        </mxCell>
        <mxCell id="QCG49On7Eu0onJou8F4M-22" value="推流管理" style="rounded=1;whiteSpace=wrap;html=1;" parent="CZPeFHUE--F_MD0TzOIN-1" vertex="1">
          <mxGeometry x="331" y="1102.5" width="70" height="20" as="geometry" />
        </mxCell>
        <mxCell id="QCG49On7Eu0onJou8F4M-23" value="转码管理" style="rounded=1;whiteSpace=wrap;html=1;" parent="CZPeFHUE--F_MD0TzOIN-1" vertex="1">
          <mxGeometry x="241" y="1132.5" width="70" height="20" as="geometry" />
        </mxCell>
        <mxCell id="QCG49On7Eu0onJou8F4M-25" value="" style="shape=flexArrow;endArrow=classic;startArrow=classic;html=1;entryX=0;entryY=0.5;entryDx=0;entryDy=0;" parent="CZPeFHUE--F_MD0TzOIN-1" target="QCG49On7Eu0onJou8F4M-3" edge="1">
          <mxGeometry width="50" height="50" relative="1" as="geometry">
            <mxPoint x="440" y="1168" as="sourcePoint" />
            <mxPoint x="621" y="1352.5" as="targetPoint" />
          </mxGeometry>
        </mxCell>
        <mxCell id="QCG49On7Eu0onJou8F4M-27" value="腾讯云COS" style="rounded=0;whiteSpace=wrap;html=1;" parent="CZPeFHUE--F_MD0TzOIN-1" vertex="1">
          <mxGeometry x="520" y="1255" width="80" height="40" as="geometry" />
        </mxCell>
        <mxCell id="QCG49On7Eu0onJou8F4M-28" value="推流中台&lt;br&gt;（音视频）" style="rounded=0;whiteSpace=wrap;html=1;" parent="CZPeFHUE--F_MD0TzOIN-1" vertex="1">
          <mxGeometry x="509.5" y="1030" width="101" height="50" as="geometry" />
        </mxCell>
        <mxCell id="xgl6AzAtLrgXvymmq0cW-1" value="&lt;b style=&quot;font-size: 14px&quot;&gt;文件扫描脚本&lt;/b&gt;" style="rounded=0;whiteSpace=wrap;html=1;fillColor=#ffe6cc;strokeColor=#d79b00;" parent="CZPeFHUE--F_MD0TzOIN-1" vertex="1">
          <mxGeometry x="350" y="301.5" width="100" height="40" as="geometry" />
        </mxCell>
        <mxCell id="xgl6AzAtLrgXvymmq0cW-2" value="&lt;font style=&quot;font-size: 14px&quot;&gt;&lt;b&gt;推流控制脚本&lt;/b&gt;&lt;/font&gt;" style="rounded=0;whiteSpace=wrap;html=1;fillColor=#fff2cc;strokeColor=#d6b656;" parent="CZPeFHUE--F_MD0TzOIN-1" vertex="1">
          <mxGeometry x="350" y="359" width="100" height="40" as="geometry" />
        </mxCell>
        <mxCell id="xgl6AzAtLrgXvymmq0cW-5" value="&lt;b style=&quot;font-size: 14px&quot;&gt;监控模块&lt;/b&gt;" style="rounded=1;whiteSpace=wrap;html=1;" parent="CZPeFHUE--F_MD0TzOIN-1" vertex="1">
          <mxGeometry x="321" y="1216.25" width="80" height="20" as="geometry" />
        </mxCell>
        <mxCell id="xgl6AzAtLrgXvymmq0cW-6" value="&lt;b style=&quot;font-size: 14px&quot;&gt;转码模块&lt;/b&gt;" style="rounded=1;whiteSpace=wrap;html=1;" parent="CZPeFHUE--F_MD0TzOIN-1" vertex="1">
          <mxGeometry x="286" y="1310" width="80" height="20" as="geometry" />
        </mxCell>
        <mxCell id="xgl6AzAtLrgXvymmq0cW-7" value="&lt;b style=&quot;font-size: 14px&quot;&gt;消息模块&lt;/b&gt;" style="rounded=1;whiteSpace=wrap;html=1;" parent="CZPeFHUE--F_MD0TzOIN-1" vertex="1">
          <mxGeometry x="241" y="1233" width="39" height="50" as="geometry" />
        </mxCell>
        <mxCell id="xgl6AzAtLrgXvymmq0cW-8" value="&lt;b style=&quot;font-size: 14px&quot;&gt;文件&lt;br&gt;上传&lt;br&gt;模块&lt;/b&gt;" style="rounded=1;whiteSpace=wrap;html=1;" parent="CZPeFHUE--F_MD0TzOIN-1" vertex="1">
          <mxGeometry x="380" y="1250" width="41" height="50" as="geometry" />
        </mxCell>
        <mxCell id="xgl6AzAtLrgXvymmq0cW-9" value="&lt;b style=&quot;font-size: 14px&quot;&gt;文件扫描服务&lt;/b&gt;" style="rounded=0;whiteSpace=wrap;html=1;fillColor=#f8cecc;strokeColor=#b85450;" parent="CZPeFHUE--F_MD0TzOIN-1" vertex="1">
          <mxGeometry x="63" y="1052.5" width="87" height="40" as="geometry" />
        </mxCell>
        <mxCell id="xgl6AzAtLrgXvymmq0cW-10" value="" style="shape=cylinder3;whiteSpace=wrap;html=1;boundedLbl=1;backgroundOutline=1;size=15;" parent="CZPeFHUE--F_MD0TzOIN-1" vertex="1">
          <mxGeometry x="96.5" y="1212.5" width="20" height="91" as="geometry" />
        </mxCell>
        <mxCell id="xgl6AzAtLrgXvymmq0cW-11" value="" style="endArrow=classic;html=1;exitX=0.5;exitY=1;exitDx=0;exitDy=0;entryX=0.5;entryY=0;entryDx=0;entryDy=0;entryPerimeter=0;" parent="CZPeFHUE--F_MD0TzOIN-1" source="xgl6AzAtLrgXvymmq0cW-9" target="xgl6AzAtLrgXvymmq0cW-10" edge="1">
          <mxGeometry width="50" height="50" relative="1" as="geometry">
            <mxPoint x="-60" y="1140" as="sourcePoint" />
            <mxPoint x="-10" y="1090" as="targetPoint" />
          </mxGeometry>
        </mxCell>
        <mxCell id="xgl6AzAtLrgXvymmq0cW-12" value="" style="endArrow=classic;html=1;entryX=0;entryY=0.5;entryDx=0;entryDy=0;rounded=0;exitX=1;exitY=0.5;exitDx=0;exitDy=0;exitPerimeter=0;" parent="CZPeFHUE--F_MD0TzOIN-1" source="xgl6AzAtLrgXvymmq0cW-10" target="xgl6AzAtLrgXvymmq0cW-7" edge="1">
          <mxGeometry width="50" height="50" relative="1" as="geometry">
            <mxPoint x="100" y="1240" as="sourcePoint" />
            <mxPoint x="20" y="1250" as="targetPoint" />
            <Array as="points">
              <mxPoint x="150" y="1258" />
            </Array>
          </mxGeometry>
        </mxCell>
        <mxCell id="xgl6AzAtLrgXvymmq0cW-13" value="FTP&lt;br&gt;上传" style="text;html=1;strokeColor=none;fillColor=none;align=center;verticalAlign=middle;whiteSpace=wrap;rounded=0;" parent="CZPeFHUE--F_MD0TzOIN-1" vertex="1">
          <mxGeometry x="63" y="1010" width="40" height="20" as="geometry" />
        </mxCell>
        <mxCell id="xgl6AzAtLrgXvymmq0cW-14" value="" style="endArrow=classic;html=1;exitX=1;exitY=0.5;exitDx=0;exitDy=0;entryX=0;entryY=0.5;entryDx=0;entryDy=0;" parent="CZPeFHUE--F_MD0TzOIN-1" source="xgl6AzAtLrgXvymmq0cW-8" target="QCG49On7Eu0onJou8F4M-27" edge="1">
          <mxGeometry width="50" height="50" relative="1" as="geometry">
            <mxPoint x="440" y="1510" as="sourcePoint" />
            <mxPoint x="490" y="1460" as="targetPoint" />
          </mxGeometry>
        </mxCell>
        <mxCell id="xgl6AzAtLrgXvymmq0cW-15" value="消息队列" style="text;html=1;strokeColor=none;fillColor=none;align=center;verticalAlign=middle;whiteSpace=wrap;rounded=0;" parent="CZPeFHUE--F_MD0TzOIN-1" vertex="1">
          <mxGeometry x="77" y="1265" width="59" height="20" as="geometry" />
        </mxCell>
        <mxCell id="xgl6AzAtLrgXvymmq0cW-16" value="&lt;font style=&quot;font-size: 14px&quot;&gt;&lt;b&gt;转码服务&lt;/b&gt;&lt;/font&gt;" style="text;html=1;strokeColor=none;fillColor=none;align=center;verticalAlign=middle;whiteSpace=wrap;rounded=0;" parent="CZPeFHUE--F_MD0TzOIN-1" vertex="1">
          <mxGeometry x="296" y="1188.75" width="60" height="20" as="geometry" />
        </mxCell>
        <mxCell id="xgl6AzAtLrgXvymmq0cW-17" value="" style="endArrow=none;html=1;entryX=1;entryY=0.14;entryDx=0;entryDy=0;entryPerimeter=0;" parent="CZPeFHUE--F_MD0TzOIN-1" target="QCG49On7Eu0onJou8F4M-6" edge="1">
          <mxGeometry width="50" height="50" relative="1" as="geometry">
            <mxPoint x="231" y="1210" as="sourcePoint" />
            <mxPoint x="340" y="1210" as="targetPoint" />
          </mxGeometry>
        </mxCell>
        <mxCell id="xgl6AzAtLrgXvymmq0cW-20" value="&lt;b style=&quot;font-size: 14px&quot;&gt;调度模块&lt;/b&gt;" style="rounded=1;whiteSpace=wrap;html=1;" parent="CZPeFHUE--F_MD0TzOIN-1" vertex="1">
          <mxGeometry x="306.5" y="1250" width="39" height="50" as="geometry" />
        </mxCell>
        <mxCell id="xgl6AzAtLrgXvymmq0cW-21" value="" style="endArrow=classic;html=1;exitX=1;exitY=0.5;exitDx=0;exitDy=0;entryX=0;entryY=0.5;entryDx=0;entryDy=0;rounded=0;" parent="CZPeFHUE--F_MD0TzOIN-1" source="QCG49On7Eu0onJou8F4M-22" target="QCG49On7Eu0onJou8F4M-28" edge="1">
          <mxGeometry width="50" height="50" relative="1" as="geometry">
            <mxPoint x="510" y="940" as="sourcePoint" />
            <mxPoint x="560" y="890" as="targetPoint" />
            <Array as="points">
              <mxPoint x="470" y="1113" />
              <mxPoint x="470" y="1055" />
            </Array>
          </mxGeometry>
        </mxCell>
        <mxCell id="xgl6AzAtLrgXvymmq0cW-22" value="节目单" style="text;html=1;strokeColor=none;fillColor=none;align=center;verticalAlign=middle;whiteSpace=wrap;rounded=0;" parent="CZPeFHUE--F_MD0TzOIN-1" vertex="1">
          <mxGeometry x="460" y="1020" width="40" height="20" as="geometry" />
        </mxCell>
        <mxCell id="xgl6AzAtLrgXvymmq0cW-23" value="" style="endArrow=classic;html=1;exitX=0.5;exitY=0;exitDx=0;exitDy=0;entryX=0.5;entryY=0;entryDx=0;entryDy=0;rounded=0;" parent="CZPeFHUE--F_MD0TzOIN-1" source="QCG49On7Eu0onJou8F4M-28" target="QCG49On7Eu0onJou8F4M-20" edge="1">
          <mxGeometry width="50" height="50" relative="1" as="geometry">
            <mxPoint x="510" y="950" as="sourcePoint" />
            <mxPoint x="560" y="900" as="targetPoint" />
            <Array as="points">
              <mxPoint x="560" y="970" />
              <mxPoint x="331" y="970" />
            </Array>
          </mxGeometry>
        </mxCell>
        <mxCell id="xgl6AzAtLrgXvymmq0cW-24" value="回调" style="text;html=1;strokeColor=none;fillColor=none;align=center;verticalAlign=middle;whiteSpace=wrap;rounded=0;" parent="CZPeFHUE--F_MD0TzOIN-1" vertex="1">
          <mxGeometry x="400" y="972.5" width="40" height="20" as="geometry" />
        </mxCell>
        <mxCell id="H2KTIsR1qOWROf8FDui1-0" value="&lt;b style=&quot;font-size: 14px&quot;&gt;视频站&lt;/b&gt;" style="rounded=0;whiteSpace=wrap;html=1;" parent="CZPeFHUE--F_MD0TzOIN-1" vertex="1">
          <mxGeometry x="520" y="1360" width="87" height="40" as="geometry" />
        </mxCell>
        <mxCell id="H2KTIsR1qOWROf8FDui1-1" value="&lt;span style=&quot;font-size: 14px&quot;&gt;&lt;b&gt;定时任务&lt;/b&gt;&lt;/span&gt;" style="rounded=0;whiteSpace=wrap;html=1;fillColor=#e1d5e7;strokeColor=#9673a6;" parent="CZPeFHUE--F_MD0TzOIN-1" vertex="1">
          <mxGeometry x="271" y="1360" width="87" height="40" as="geometry" />
        </mxCell>
        <mxCell id="H2KTIsR1qOWROf8FDui1-2" value="" style="shape=flexArrow;endArrow=classic;startArrow=classic;html=1;exitX=1;exitY=0.5;exitDx=0;exitDy=0;entryX=0;entryY=0.5;entryDx=0;entryDy=0;" parent="CZPeFHUE--F_MD0TzOIN-1" source="H2KTIsR1qOWROf8FDui1-1" target="H2KTIsR1qOWROf8FDui1-0" edge="1">
          <mxGeometry width="50" height="50" relative="1" as="geometry">
            <mxPoint x="440" y="1410" as="sourcePoint" />
            <mxPoint x="490" y="1360" as="targetPoint" />
          </mxGeometry>
        </mxCell>
        <mxCell id="H2KTIsR1qOWROf8FDui1-3" value="&lt;b style=&quot;font-size: 14px&quot;&gt;赛事打点数据&lt;/b&gt;" style="text;html=1;strokeColor=none;fillColor=none;align=center;verticalAlign=middle;whiteSpace=wrap;rounded=0;" parent="CZPeFHUE--F_MD0TzOIN-1" vertex="1">
          <mxGeometry x="371" y="1350" width="149" height="20" as="geometry" />
        </mxCell>
        <mxCell id="H2KTIsR1qOWROf8FDui1-4" value="" style="endArrow=classic;html=1;entryX=0.5;entryY=1;entryDx=0;entryDy=0;entryPerimeter=0;exitX=0;exitY=0.5;exitDx=0;exitDy=0;rounded=0;" parent="CZPeFHUE--F_MD0TzOIN-1" source="H2KTIsR1qOWROf8FDui1-1" target="xgl6AzAtLrgXvymmq0cW-10" edge="1">
          <mxGeometry width="50" height="50" relative="1" as="geometry">
            <mxPoint x="90" y="1340" as="sourcePoint" />
            <mxPoint x="140" y="1290" as="targetPoint" />
            <Array as="points">
              <mxPoint x="107" y="1380" />
            </Array>
          </mxGeometry>
        </mxCell>
        <mxCell id="VmyDUueD6QinXuocbMbC-1" value="&lt;b style=&quot;font-size: 14px&quot;&gt;转码脚本&lt;/b&gt;" style="rounded=0;whiteSpace=wrap;html=1;fillColor=#ffe6cc;strokeColor=#d79b00;" vertex="1" parent="CZPeFHUE--F_MD0TzOIN-1">
          <mxGeometry x="1101.25" y="301" width="68" height="30" as="geometry" />
        </mxCell>
        <mxCell id="VmyDUueD6QinXuocbMbC-2" value="&lt;font style=&quot;font-size: 14px&quot;&gt;&lt;b&gt;推流脚本&lt;/b&gt;&lt;/font&gt;" style="rounded=0;whiteSpace=wrap;html=1;fillColor=#fff2cc;strokeColor=#d6b656;" vertex="1" parent="CZPeFHUE--F_MD0TzOIN-1">
          <mxGeometry x="1101.25" y="348.5" width="67" height="30" as="geometry" />
        </mxCell>
        <mxCell id="VmyDUueD6QinXuocbMbC-3" value="" style="rounded=0;whiteSpace=wrap;html=1;fillColor=#dae8fc;strokeColor=#6c8ebf;" vertex="1" parent="CZPeFHUE--F_MD0TzOIN-1">
          <mxGeometry x="1280.25" y="301" width="161" height="80" as="geometry" />
        </mxCell>
        <mxCell id="VmyDUueD6QinXuocbMbC-5" value="&lt;font style=&quot;font-size: 14px&quot;&gt;&lt;b&gt;管理后台&lt;/b&gt;&lt;/font&gt;" style="text;html=1;strokeColor=none;fillColor=none;align=center;verticalAlign=middle;whiteSpace=wrap;rounded=0;" vertex="1" parent="CZPeFHUE--F_MD0TzOIN-1">
          <mxGeometry x="1331.75" y="301" width="60" height="20" as="geometry" />
        </mxCell>
        <mxCell id="VmyDUueD6QinXuocbMbC-6" value="节目单管理" style="rounded=1;whiteSpace=wrap;html=1;" vertex="1" parent="CZPeFHUE--F_MD0TzOIN-1">
          <mxGeometry x="1290.25" y="324.75" width="70" height="20" as="geometry" />
        </mxCell>
        <mxCell id="VmyDUueD6QinXuocbMbC-7" value="推流管理" style="rounded=1;whiteSpace=wrap;html=1;" vertex="1" parent="CZPeFHUE--F_MD0TzOIN-1">
          <mxGeometry x="1366.25" y="330.5" width="70" height="20" as="geometry" />
        </mxCell>
        <mxCell id="VmyDUueD6QinXuocbMbC-8" value="转码管理" style="rounded=1;whiteSpace=wrap;html=1;" vertex="1" parent="CZPeFHUE--F_MD0TzOIN-1">
          <mxGeometry x="1290.25" y="353.5" width="70" height="20" as="geometry" />
        </mxCell>
        <mxCell id="VmyDUueD6QinXuocbMbC-9" value="&lt;b style=&quot;font-size: 14px&quot;&gt;文件扫描脚本&lt;/b&gt;" style="rounded=0;whiteSpace=wrap;html=1;fillColor=#ffe6cc;strokeColor=#d79b00;" vertex="1" parent="CZPeFHUE--F_MD0TzOIN-1">
          <mxGeometry x="1171.25" y="301" width="98" height="30" as="geometry" />
        </mxCell>
        <mxCell id="VmyDUueD6QinXuocbMbC-10" value="&lt;font style=&quot;font-size: 14px&quot;&gt;&lt;b&gt;推流控制脚本&lt;/b&gt;&lt;/font&gt;" style="rounded=0;whiteSpace=wrap;html=1;fillColor=#fff2cc;strokeColor=#d6b656;" vertex="1" parent="CZPeFHUE--F_MD0TzOIN-1">
          <mxGeometry x="1171.25" y="348.5" width="97" height="30" as="geometry" />
        </mxCell>
        <mxCell id="VmyDUueD6QinXuocbMbC-11" value="&lt;font style=&quot;font-size: 14px&quot;&gt;&lt;b&gt;业务层&lt;/b&gt;&lt;/font&gt;" style="text;html=1;strokeColor=none;fillColor=none;align=center;verticalAlign=middle;whiteSpace=wrap;rounded=0;" vertex="1" parent="CZPeFHUE--F_MD0TzOIN-1">
          <mxGeometry x="1000" y="332.5" width="50" height="20" as="geometry" />
        </mxCell>
        <mxCell id="VmyDUueD6QinXuocbMbC-17" value="&lt;font style=&quot;font-size: 14px&quot;&gt;&lt;b&gt;存储层&lt;/b&gt;&lt;/font&gt;" style="text;html=1;strokeColor=none;fillColor=none;align=center;verticalAlign=middle;whiteSpace=wrap;rounded=0;" vertex="1" parent="CZPeFHUE--F_MD0TzOIN-1">
          <mxGeometry x="1000" y="440" width="50" height="20" as="geometry" />
        </mxCell>
        <mxCell id="VmyDUueD6QinXuocbMbC-18" value="&lt;b style=&quot;font-size: 14px&quot;&gt;MySQL&lt;/b&gt;" style="rounded=0;whiteSpace=wrap;html=1;fillColor=#e1d5e7;strokeColor=#9673a6;" vertex="1" parent="CZPeFHUE--F_MD0TzOIN-1">
          <mxGeometry x="1182.5" y="425" width="79" height="30" as="geometry" />
        </mxCell>
        <mxCell id="VmyDUueD6QinXuocbMbC-19" value="&lt;b style=&quot;font-size: 14px&quot;&gt;Redis&lt;/b&gt;" style="rounded=0;whiteSpace=wrap;html=1;fillColor=#e1d5e7;strokeColor=#9673a6;" vertex="1" parent="CZPeFHUE--F_MD0TzOIN-1">
          <mxGeometry x="1283.25" y="425" width="79" height="30" as="geometry" />
        </mxCell>
        <mxCell id="VmyDUueD6QinXuocbMbC-21" value="&lt;span style=&quot;font-size: 14px&quot;&gt;&lt;b&gt;阿里云nas&lt;/b&gt;&lt;/span&gt;" style="rounded=0;whiteSpace=wrap;html=1;fillColor=#e1d5e7;strokeColor=#9673a6;" vertex="1" parent="CZPeFHUE--F_MD0TzOIN-1">
          <mxGeometry x="1510" y="420" width="79" height="40" as="geometry" />
        </mxCell>
        <mxCell id="VmyDUueD6QinXuocbMbC-22" value="" style="endArrow=none;dashed=1;html=1;" edge="1" parent="CZPeFHUE--F_MD0TzOIN-1">
          <mxGeometry width="50" height="50" relative="1" as="geometry">
            <mxPoint x="1000" y="280" as="sourcePoint" />
            <mxPoint x="1600" y="280" as="targetPoint" />
          </mxGeometry>
        </mxCell>
        <mxCell id="VmyDUueD6QinXuocbMbC-23" value="" style="endArrow=none;dashed=1;html=1;" edge="1" parent="CZPeFHUE--F_MD0TzOIN-1">
          <mxGeometry width="50" height="50" relative="1" as="geometry">
            <mxPoint x="1000" y="399" as="sourcePoint" />
            <mxPoint x="1600" y="399" as="targetPoint" />
          </mxGeometry>
        </mxCell>
        <mxCell id="VmyDUueD6QinXuocbMbC-24" value="" style="endArrow=none;dashed=1;html=1;" edge="1" parent="CZPeFHUE--F_MD0TzOIN-1">
          <mxGeometry width="50" height="50" relative="1" as="geometry">
            <mxPoint x="1000" y="480" as="sourcePoint" />
            <mxPoint x="1600" y="480" as="targetPoint" />
          </mxGeometry>
        </mxCell>
        <mxCell id="VmyDUueD6QinXuocbMbC-25" value="流服务器" style="rounded=0;whiteSpace=wrap;html=1;" vertex="1" parent="CZPeFHUE--F_MD0TzOIN-1">
          <mxGeometry x="1492.5" y="322.5" width="57.5" height="40" as="geometry" />
        </mxCell>
        <mxCell id="VmyDUueD6QinXuocbMbC-26" value="导播台" style="rounded=0;whiteSpace=wrap;html=1;" vertex="1" parent="CZPeFHUE--F_MD0TzOIN-1">
          <mxGeometry x="1560" y="322.5" width="63" height="40" as="geometry" />
        </mxCell>
        <mxCell id="VmyDUueD6QinXuocbMbC-27" value="&lt;font style=&quot;font-size: 14px&quot;&gt;&lt;b&gt;接入层&lt;/b&gt;&lt;/font&gt;" style="text;html=1;strokeColor=none;fillColor=none;align=center;verticalAlign=middle;whiteSpace=wrap;rounded=0;" vertex="1" parent="CZPeFHUE--F_MD0TzOIN-1">
          <mxGeometry x="1000" y="240" width="50" height="20" as="geometry" />
        </mxCell>
        <mxCell id="VmyDUueD6QinXuocbMbC-28" value="" style="endArrow=none;dashed=1;html=1;" edge="1" parent="CZPeFHUE--F_MD0TzOIN-1">
          <mxGeometry width="50" height="50" relative="1" as="geometry">
            <mxPoint x="1008.5" y="200" as="sourcePoint" />
            <mxPoint x="1608.5" y="200" as="targetPoint" />
          </mxGeometry>
        </mxCell>
        <mxCell id="VmyDUueD6QinXuocbMbC-29" value="管理后台前端页面" style="rounded=0;whiteSpace=wrap;html=1;fillColor=#d5e8d4;strokeColor=#82b366;" vertex="1" parent="CZPeFHUE--F_MD0TzOIN-1">
          <mxGeometry x="1209.5" y="225" width="131" height="35" as="geometry" />
        </mxCell>
        <mxCell id="VmyDUueD6QinXuocbMbC-30" value="&lt;font style=&quot;font-size: 14px&quot;&gt;&lt;b&gt;运行环境&lt;/b&gt;&lt;/font&gt;" style="text;html=1;strokeColor=none;fillColor=none;align=center;verticalAlign=middle;whiteSpace=wrap;rounded=0;" vertex="1" parent="CZPeFHUE--F_MD0TzOIN-1">
          <mxGeometry x="990" y="510" width="70" height="20" as="geometry" />
        </mxCell>
        <mxCell id="VmyDUueD6QinXuocbMbC-31" value="" style="endArrow=none;dashed=1;html=1;" edge="1" parent="CZPeFHUE--F_MD0TzOIN-1">
          <mxGeometry width="50" height="50" relative="1" as="geometry">
            <mxPoint x="1000" y="560" as="sourcePoint" />
            <mxPoint x="1600" y="560" as="targetPoint" />
          </mxGeometry>
        </mxCell>
        <mxCell id="VmyDUueD6QinXuocbMbC-32" value="&lt;span style=&quot;font-size: 14px&quot;&gt;&lt;b&gt;物理机，Ubuntu，JDK&lt;/b&gt;&lt;/span&gt;" style="rounded=0;whiteSpace=wrap;html=1;fillColor=#bac8d3;strokeColor=#23445d;" vertex="1" parent="CZPeFHUE--F_MD0TzOIN-1">
          <mxGeometry x="1169.25" y="500" width="217.5" height="40" as="geometry" />
        </mxCell>
        <mxCell id="VmyDUueD6QinXuocbMbC-39" value="" style="rounded=0;whiteSpace=wrap;html=1;fillColor=#fff2cc;strokeColor=#d6b656;" vertex="1" parent="CZPeFHUE--F_MD0TzOIN-1">
          <mxGeometry x="1404" y="1188.75" width="156" height="120" as="geometry" />
        </mxCell>
        <mxCell id="VmyDUueD6QinXuocbMbC-40" value="" style="rounded=0;whiteSpace=wrap;html=1;fillColor=#dae8fc;strokeColor=#6c8ebf;" vertex="1" parent="CZPeFHUE--F_MD0TzOIN-1">
          <mxGeometry x="1288" y="1070" width="181" height="80" as="geometry" />
        </mxCell>
        <mxCell id="VmyDUueD6QinXuocbMbC-41" value="&lt;font style=&quot;font-size: 14px&quot;&gt;&lt;b&gt;管理后台&lt;/b&gt;&lt;/font&gt;" style="text;html=1;strokeColor=none;fillColor=none;align=center;verticalAlign=middle;whiteSpace=wrap;rounded=0;" vertex="1" parent="CZPeFHUE--F_MD0TzOIN-1">
          <mxGeometry x="1340" y="1071.25" width="60" height="20" as="geometry" />
        </mxCell>
        <mxCell id="VmyDUueD6QinXuocbMbC-42" value="节目单管理" style="rounded=1;whiteSpace=wrap;html=1;" vertex="1" parent="CZPeFHUE--F_MD0TzOIN-1">
          <mxGeometry x="1298" y="1091.25" width="70" height="20" as="geometry" />
        </mxCell>
        <mxCell id="VmyDUueD6QinXuocbMbC-43" value="推流管理" style="rounded=1;whiteSpace=wrap;html=1;" vertex="1" parent="CZPeFHUE--F_MD0TzOIN-1">
          <mxGeometry x="1388" y="1091.25" width="70" height="20" as="geometry" />
        </mxCell>
        <mxCell id="VmyDUueD6QinXuocbMbC-44" value="转码管理" style="rounded=1;whiteSpace=wrap;html=1;" vertex="1" parent="CZPeFHUE--F_MD0TzOIN-1">
          <mxGeometry x="1299" y="1121.25" width="70" height="20" as="geometry" />
        </mxCell>
        <mxCell id="VmyDUueD6QinXuocbMbC-47" value="&lt;font style=&quot;font-size: 14px&quot;&gt;&lt;b&gt;业务层&lt;/b&gt;&lt;/font&gt;" style="text;html=1;strokeColor=none;fillColor=none;align=center;verticalAlign=middle;whiteSpace=wrap;rounded=0;" vertex="1" parent="CZPeFHUE--F_MD0TzOIN-1">
          <mxGeometry x="1080" y="1102.5" width="50" height="20" as="geometry" />
        </mxCell>
        <mxCell id="VmyDUueD6QinXuocbMbC-48" value="&lt;font style=&quot;font-size: 14px&quot;&gt;&lt;b&gt;存储层&lt;/b&gt;&lt;/font&gt;" style="text;html=1;strokeColor=none;fillColor=none;align=center;verticalAlign=middle;whiteSpace=wrap;rounded=0;" vertex="1" parent="CZPeFHUE--F_MD0TzOIN-1">
          <mxGeometry x="1079" y="1385" width="50" height="20" as="geometry" />
        </mxCell>
        <mxCell id="VmyDUueD6QinXuocbMbC-49" value="&lt;b style=&quot;font-size: 14px&quot;&gt;MySQL&lt;/b&gt;" style="rounded=0;whiteSpace=wrap;html=1;fillColor=#e1d5e7;strokeColor=#9673a6;" vertex="1" parent="CZPeFHUE--F_MD0TzOIN-1">
          <mxGeometry x="1281.5" y="1371" width="79" height="40" as="geometry" />
        </mxCell>
        <mxCell id="VmyDUueD6QinXuocbMbC-50" value="&lt;b style=&quot;font-size: 14px&quot;&gt;Redis&lt;/b&gt;" style="rounded=0;whiteSpace=wrap;html=1;fillColor=#e1d5e7;strokeColor=#9673a6;" vertex="1" parent="CZPeFHUE--F_MD0TzOIN-1">
          <mxGeometry x="1400.5" y="1371" width="79" height="40" as="geometry" />
        </mxCell>
        <mxCell id="VmyDUueD6QinXuocbMbC-51" value="&lt;span style=&quot;font-size: 14px&quot;&gt;&lt;b&gt;腾讯云cos&lt;/b&gt;&lt;/span&gt;" style="rounded=0;whiteSpace=wrap;html=1;fillColor=#e1d5e7;strokeColor=#9673a6;" vertex="1" parent="CZPeFHUE--F_MD0TzOIN-1">
          <mxGeometry x="1620" y="1360" width="79" height="25" as="geometry" />
        </mxCell>
        <mxCell id="VmyDUueD6QinXuocbMbC-52" value="" style="endArrow=none;dashed=1;html=1;" edge="1" parent="CZPeFHUE--F_MD0TzOIN-1">
          <mxGeometry width="50" height="50" relative="1" as="geometry">
            <mxPoint x="1080" y="1050" as="sourcePoint" />
            <mxPoint x="1700" y="1050" as="targetPoint" />
          </mxGeometry>
        </mxCell>
        <mxCell id="VmyDUueD6QinXuocbMbC-53" value="" style="endArrow=none;dashed=1;html=1;" edge="1" parent="CZPeFHUE--F_MD0TzOIN-1">
          <mxGeometry width="50" height="50" relative="1" as="geometry">
            <mxPoint x="1080" y="1350" as="sourcePoint" />
            <mxPoint x="1680" y="1350" as="targetPoint" />
          </mxGeometry>
        </mxCell>
        <mxCell id="VmyDUueD6QinXuocbMbC-54" value="" style="endArrow=none;dashed=1;html=1;" edge="1" parent="CZPeFHUE--F_MD0TzOIN-1">
          <mxGeometry width="50" height="50" relative="1" as="geometry">
            <mxPoint x="1080" y="1431" as="sourcePoint" />
            <mxPoint x="1680" y="1431" as="targetPoint" />
          </mxGeometry>
        </mxCell>
        <mxCell id="VmyDUueD6QinXuocbMbC-57" value="&lt;font style=&quot;font-size: 14px&quot;&gt;&lt;b&gt;接入层&lt;/b&gt;&lt;/font&gt;" style="text;html=1;strokeColor=none;fillColor=none;align=center;verticalAlign=middle;whiteSpace=wrap;rounded=0;" vertex="1" parent="CZPeFHUE--F_MD0TzOIN-1">
          <mxGeometry x="1079" y="1010" width="50" height="20" as="geometry" />
        </mxCell>
        <mxCell id="VmyDUueD6QinXuocbMbC-58" value="" style="endArrow=none;dashed=1;html=1;" edge="1" parent="CZPeFHUE--F_MD0TzOIN-1">
          <mxGeometry width="50" height="50" relative="1" as="geometry">
            <mxPoint x="1080" y="970" as="sourcePoint" />
            <mxPoint x="1708.5" y="970" as="targetPoint" />
          </mxGeometry>
        </mxCell>
        <mxCell id="VmyDUueD6QinXuocbMbC-59" value="管理后台前端页面" style="rounded=0;whiteSpace=wrap;html=1;fillColor=#d5e8d4;strokeColor=#82b366;" vertex="1" parent="CZPeFHUE--F_MD0TzOIN-1">
          <mxGeometry x="1288" y="992.5" width="171" height="35" as="geometry" />
        </mxCell>
        <mxCell id="VmyDUueD6QinXuocbMbC-60" value="&lt;font style=&quot;font-size: 14px&quot;&gt;&lt;b&gt;运行环境&lt;/b&gt;&lt;/font&gt;" style="text;html=1;strokeColor=none;fillColor=none;align=center;verticalAlign=middle;whiteSpace=wrap;rounded=0;" vertex="1" parent="CZPeFHUE--F_MD0TzOIN-1">
          <mxGeometry x="1070" y="1461" width="70" height="20" as="geometry" />
        </mxCell>
        <mxCell id="VmyDUueD6QinXuocbMbC-62" value="&lt;span style=&quot;font-size: 14px&quot;&gt;&lt;b&gt;Athena容器，Ubuntu，JDK&lt;/b&gt;&lt;/span&gt;" style="rounded=0;whiteSpace=wrap;html=1;fillColor=#bac8d3;strokeColor=#23445d;" vertex="1" parent="CZPeFHUE--F_MD0TzOIN-1">
          <mxGeometry x="1272.5" y="1451" width="217.5" height="40" as="geometry" />
        </mxCell>
        <mxCell id="VmyDUueD6QinXuocbMbC-64" value="" style="endArrow=none;dashed=1;html=1;" edge="1" parent="CZPeFHUE--F_MD0TzOIN-1">
          <mxGeometry width="50" height="50" relative="1" as="geometry">
            <mxPoint x="1080" y="1168" as="sourcePoint" />
            <mxPoint x="1704" y="1168" as="targetPoint" />
          </mxGeometry>
        </mxCell>
        <mxCell id="VmyDUueD6QinXuocbMbC-66" value="&lt;span style=&quot;font-size: 14px&quot;&gt;&lt;b&gt;阿里云oss&lt;br&gt;&lt;/b&gt;&lt;/span&gt;" style="rounded=0;whiteSpace=wrap;html=1;fillColor=#e1d5e7;strokeColor=#9673a6;" vertex="1" parent="CZPeFHUE--F_MD0TzOIN-1">
          <mxGeometry x="1620" y="1400" width="79" height="25" as="geometry" />
        </mxCell>
        <mxCell id="VmyDUueD6QinXuocbMbC-68" value="&lt;b style=&quot;font-size: 14px&quot;&gt;推流服务&lt;/b&gt;" style="text;html=1;strokeColor=none;fillColor=none;align=center;verticalAlign=middle;whiteSpace=wrap;rounded=0;" vertex="1" parent="CZPeFHUE--F_MD0TzOIN-1">
          <mxGeometry x="1451" y="1194.5" width="71" height="20" as="geometry" />
        </mxCell>
        <mxCell id="VmyDUueD6QinXuocbMbC-69" value="" style="rounded=0;whiteSpace=wrap;html=1;fillColor=#ffe6cc;strokeColor=#d79b00;" vertex="1" parent="CZPeFHUE--F_MD0TzOIN-1">
          <mxGeometry x="1200" y="1188.75" width="189" height="130" as="geometry" />
        </mxCell>
        <mxCell id="VmyDUueD6QinXuocbMbC-70" value="&lt;b style=&quot;font-size: 14px&quot;&gt;监控模块&lt;/b&gt;" style="rounded=1;whiteSpace=wrap;html=1;" vertex="1" parent="CZPeFHUE--F_MD0TzOIN-1">
          <mxGeometry x="1315" y="1224.56" width="65.5" height="20" as="geometry" />
        </mxCell>
        <mxCell id="VmyDUueD6QinXuocbMbC-71" value="&lt;b style=&quot;font-size: 14px&quot;&gt;转码模块&lt;/b&gt;" style="rounded=1;whiteSpace=wrap;html=1;" vertex="1" parent="CZPeFHUE--F_MD0TzOIN-1">
          <mxGeometry x="1239" y="1292.38" width="80" height="20" as="geometry" />
        </mxCell>
        <mxCell id="VmyDUueD6QinXuocbMbC-72" value="&lt;b style=&quot;font-size: 14px&quot;&gt;消息模块&lt;/b&gt;" style="rounded=1;whiteSpace=wrap;html=1;" vertex="1" parent="CZPeFHUE--F_MD0TzOIN-1">
          <mxGeometry x="1208.5" y="1227.38" width="39" height="50" as="geometry" />
        </mxCell>
        <mxCell id="VmyDUueD6QinXuocbMbC-73" value="&lt;b style=&quot;font-size: 14px&quot;&gt;文件&lt;br&gt;上传&lt;br&gt;模块&lt;/b&gt;" style="rounded=1;whiteSpace=wrap;html=1;" vertex="1" parent="CZPeFHUE--F_MD0TzOIN-1">
          <mxGeometry x="1333.5" y="1248.75" width="41" height="50" as="geometry" />
        </mxCell>
        <mxCell id="VmyDUueD6QinXuocbMbC-74" value="&lt;font style=&quot;font-size: 14px&quot;&gt;&lt;b&gt;转码服务&lt;/b&gt;&lt;/font&gt;" style="text;html=1;strokeColor=none;fillColor=none;align=center;verticalAlign=middle;whiteSpace=wrap;rounded=0;" vertex="1" parent="CZPeFHUE--F_MD0TzOIN-1">
          <mxGeometry x="1259" y="1191.25" width="60" height="20" as="geometry" />
        </mxCell>
        <mxCell id="VmyDUueD6QinXuocbMbC-75" value="" style="endArrow=none;html=1;" edge="1" parent="CZPeFHUE--F_MD0TzOIN-1">
          <mxGeometry width="50" height="50" relative="1" as="geometry">
            <mxPoint x="1204.5" y="1215" as="sourcePoint" />
            <mxPoint x="1384.5" y="1215" as="targetPoint" />
          </mxGeometry>
        </mxCell>
        <mxCell id="VmyDUueD6QinXuocbMbC-76" value="&lt;b style=&quot;font-size: 14px&quot;&gt;调度模块&lt;/b&gt;" style="rounded=1;whiteSpace=wrap;html=1;" vertex="1" parent="CZPeFHUE--F_MD0TzOIN-1">
          <mxGeometry x="1261.5" y="1227.5" width="39" height="50" as="geometry" />
        </mxCell>
        <mxCell id="VmyDUueD6QinXuocbMbC-77" value="" style="endArrow=none;html=1;" edge="1" parent="CZPeFHUE--F_MD0TzOIN-1">
          <mxGeometry width="50" height="50" relative="1" as="geometry">
            <mxPoint x="1406.5" y="1218.3200000000002" as="sourcePoint" />
            <mxPoint x="1560" y="1217.75" as="targetPoint" />
          </mxGeometry>
        </mxCell>
        <mxCell id="VmyDUueD6QinXuocbMbC-78" value="&lt;b&gt;&lt;font style=&quot;font-size: 14px&quot;&gt;回调模块&lt;/font&gt;&lt;/b&gt;" style="rounded=1;whiteSpace=wrap;html=1;" vertex="1" parent="CZPeFHUE--F_MD0TzOIN-1">
          <mxGeometry x="1482" y="1261.25" width="40" height="35" as="geometry" />
        </mxCell>
        <mxCell id="VmyDUueD6QinXuocbMbC-79" value="&lt;b style=&quot;font-size: 14px&quot;&gt;监控模块&lt;/b&gt;" style="rounded=1;whiteSpace=wrap;html=1;" vertex="1" parent="CZPeFHUE--F_MD0TzOIN-1">
          <mxGeometry x="1470" y="1227.5" width="80" height="20" as="geometry" />
        </mxCell>
        <mxCell id="VmyDUueD6QinXuocbMbC-80" value="&lt;b&gt;&lt;font style=&quot;font-size: 14px&quot;&gt;推流&lt;br&gt;模块&lt;/font&gt;&lt;/b&gt;" style="rounded=1;whiteSpace=wrap;html=1;" vertex="1" parent="CZPeFHUE--F_MD0TzOIN-1">
          <mxGeometry x="1412" y="1232.38" width="50" height="40" as="geometry" />
        </mxCell>
        <mxCell id="VmyDUueD6QinXuocbMbC-81" value="&lt;font style=&quot;font-size: 14px&quot;&gt;&lt;b&gt;服务层&lt;/b&gt;&lt;/font&gt;" style="text;html=1;strokeColor=none;fillColor=none;align=center;verticalAlign=middle;whiteSpace=wrap;rounded=0;" vertex="1" parent="CZPeFHUE--F_MD0TzOIN-1">
          <mxGeometry x="1079" y="1247.5" width="50" height="20" as="geometry" />
        </mxCell>
        <mxCell id="VmyDUueD6QinXuocbMbC-83" value="&lt;span style=&quot;font-size: 14px&quot;&gt;&lt;b&gt;CDN&lt;/b&gt;&lt;/span&gt;" style="rounded=0;whiteSpace=wrap;html=1;fillColor=#e1d5e7;strokeColor=#9673a6;" vertex="1" parent="CZPeFHUE--F_MD0TzOIN-1">
          <mxGeometry x="1620" y="1245.8100000000002" width="79" height="25" as="geometry" />
        </mxCell>
      </root>
    </mxGraphModel>
  </diagram>
</mxfile>
